<mxfile host="app.diagrams.net" modified="2023-05-14T14:58:25.908Z" agent="Mozilla/5.0 (Windows NT 10.0; Win64; x64) AppleWebKit/537.36 (KHTML, like Gecko) Chrome/113.0.0.0 Safari/537.36 Edg/113.0.1774.42" version="21.3.0" etag="ImYW03YnoCuYGXIDvQ2P" type="device">
  <diagram id="HfiIREaECkkQrl5E15Gr" name="Page-1">
    <mxGraphModel dx="11273" dy="5440" grid="1" gridSize="10" guides="1" tooltips="1" connect="1" arrows="1" fold="1" page="0" pageScale="1" pageWidth="827" pageHeight="1169" background="none" math="0" shadow="0">
      <root>
        <mxCell id="0" />
        <mxCell id="1" parent="0" />
        <mxCell id="node7" value="&lt;p style=&quot;margin:0px;margin-top:4px;text-align:center;&quot;&gt;&lt;b&gt;AbstractProcessElement&lt;R, T&gt;&lt;/b&gt;&lt;/p&gt;&lt;hr size=&quot;1&quot;/&gt;&lt;p style=&quot;margin:0 0 0 4px;line-height:1.6;&quot;&gt;+ AbstractProcessElement(): &lt;/p&gt;&lt;hr size=&quot;1&quot;/&gt;&lt;p style=&quot;margin:0 0 0 4px;line-height:1.6;&quot;&gt;- next: BiFunction&amp;lt;R, T, T&amp;gt;&lt;/p&gt;&lt;hr size=&quot;1&quot;/&gt;&lt;p style=&quot;margin:0 0 0 4px;line-height:1.6;&quot;&gt;# callNext(R, T): T&lt;br/&gt;+ setNext(BiFunction&amp;lt;R, T, T&amp;gt;): void&lt;/p&gt;" style="verticalAlign=top;align=left;overflow=fill;fontSize=14;fontFamily=Helvetica;html=1;rounded=0;shadow=0;comic=0;labelBackgroundColor=none;strokeWidth=1;fillColor=#F2CC8F;strokeColor=#E07A5F;fontColor=#393C56;" parent="1" vertex="1">
          <mxGeometry x="-1674" y="3380" width="296" height="147" as="geometry" />
        </mxCell>
        <mxCell id="node4" value="&lt;p style=&quot;margin:0px;margin-top:4px;text-align:center;&quot;&gt;&lt;b&gt;Address&lt;/b&gt;&lt;/p&gt;&lt;hr size=&quot;1&quot;/&gt;&lt;p style=&quot;margin:0 0 0 4px;line-height:1.6;&quot;&gt;+ Address(): &lt;br/&gt;+ Address(String, String, String, String, String): &lt;/p&gt;&lt;hr size=&quot;1&quot;/&gt;&lt;p style=&quot;margin:0 0 0 4px;line-height:1.6;&quot;&gt;- street: String&lt;br/&gt;- zipCode: String&lt;br/&gt;- city: String&lt;br/&gt;- state: String&lt;br/&gt;- country: String&lt;/p&gt;&lt;hr size=&quot;1&quot;/&gt;&lt;p style=&quot;margin:0 0 0 4px;line-height:1.6;&quot;&gt;+ getStreet(): String&lt;br/&gt;+ setZipCode(String): void&lt;br/&gt;+ hashCode(): int&lt;br/&gt;+ getCity(): String&lt;br/&gt;+ getState(): String&lt;br/&gt;+ getCountry(): String&lt;br/&gt;+ getZipCode(): String&lt;br/&gt;# canEqual(Object): boolean&lt;br/&gt;+ setStreet(String): void&lt;br/&gt;+ setCity(String): void&lt;br/&gt;+ toString(): String&lt;br/&gt;+ equals(Object): boolean&lt;br/&gt;+ setState(String): void&lt;br/&gt;+ setCountry(String): void&lt;/p&gt;" style="verticalAlign=top;align=left;overflow=fill;fontSize=14;fontFamily=Helvetica;html=1;rounded=0;shadow=0;comic=0;labelBackgroundColor=none;strokeWidth=1;fillColor=#F2CC8F;strokeColor=#E07A5F;fontColor=#393C56;" parent="1" vertex="1">
          <mxGeometry x="2361" y="-14" width="334" height="623" as="geometry" />
        </mxCell>
        <mxCell id="node16" value="&lt;p style=&quot;margin:0px;margin-top:4px;text-align:center;&quot;&gt;&lt;b&gt;Admin&lt;/b&gt;&lt;/p&gt;&lt;hr size=&quot;1&quot;/&gt;&lt;p style=&quot;margin:0 0 0 4px;line-height:1.6;&quot;&gt;+ Admin(): &lt;/p&gt;&lt;hr size=&quot;1&quot;/&gt;&lt;p style=&quot;margin:0 0 0 4px;line-height:1.6;&quot;&gt;+ toString(): String&lt;br/&gt;+ equals(Object): boolean&lt;br/&gt;# canEqual(Object): boolean&lt;br/&gt;+ hashCode(): int&lt;/p&gt;" style="verticalAlign=top;align=left;overflow=fill;fontSize=14;fontFamily=Helvetica;html=1;rounded=0;shadow=0;comic=0;labelBackgroundColor=none;strokeWidth=1;fillColor=#F2CC8F;strokeColor=#E07A5F;fontColor=#393C56;" parent="1" vertex="1">
          <mxGeometry x="122" y="1551" width="210" height="173" as="geometry" />
        </mxCell>
        <mxCell id="node24" value="&lt;p style=&quot;margin:0px;margin-top:4px;text-align:center;&quot;&gt;&lt;b&gt;Aircraft&lt;/b&gt;&lt;/p&gt;&lt;hr size=&quot;1&quot;/&gt;&lt;p style=&quot;margin:0 0 0 4px;line-height:1.6;&quot;&gt;+ Aircraft(String, String, int, List&amp;lt;Seat&amp;gt;): &lt;br/&gt;+ Aircraft(): &lt;/p&gt;&lt;hr size=&quot;1&quot;/&gt;&lt;p style=&quot;margin:0 0 0 4px;line-height:1.6;&quot;&gt;- name: String&lt;br/&gt;- id: long&lt;br/&gt;- seats: List&amp;lt;Seat&amp;gt;&lt;br/&gt;- manufacturingYear: int&lt;br/&gt;- modal: String&lt;/p&gt;&lt;hr size=&quot;1&quot;/&gt;&lt;p style=&quot;margin:0 0 0 4px;line-height:1.6;&quot;&gt;+ getId(): long&lt;br/&gt;+ getName(): String&lt;br/&gt;+ getModal(): String&lt;br/&gt;+ getManufacturingYear(): int&lt;br/&gt;+ toString(): String&lt;br/&gt;+ getSeats(): List&amp;lt;Seat&amp;gt;&lt;br/&gt;+ setId(long): void&lt;br/&gt;+ setName(String): void&lt;br/&gt;+ hashCode(): int&lt;br/&gt;# canEqual(Object): boolean&lt;br/&gt;+ setModal(String): void&lt;br/&gt;+ setManufacturingYear(int): void&lt;br/&gt;+ setSeats(List&amp;lt;Seat&amp;gt;): void&lt;br/&gt;+ equals(Object): boolean&lt;/p&gt;" style="verticalAlign=top;align=left;overflow=fill;fontSize=14;fontFamily=Helvetica;html=1;rounded=0;shadow=0;comic=0;labelBackgroundColor=none;strokeWidth=1;fillColor=#F2CC8F;strokeColor=#E07A5F;fontColor=#393C56;" parent="1" vertex="1">
          <mxGeometry x="-639" y="1326" width="294" height="623" as="geometry" />
        </mxCell>
        <mxCell id="node8" value="&lt;p style=&quot;margin:0px;margin-top:4px;text-align:center;&quot;&gt;&lt;i&gt;&amp;lt;&amp;lt;interface&amp;gt;&amp;gt;&lt;/i&gt;&lt;br/&gt;&lt;b&gt;AircraftService&lt;/b&gt;&lt;/p&gt;&lt;hr size=&quot;1&quot;/&gt;&lt;p style=&quot;margin:0 0 0 4px;line-height:1.6;&quot;&gt;+ generateSeats(): ArrayList&amp;lt;Seat&amp;gt;&lt;/p&gt;" style="verticalAlign=top;align=left;overflow=fill;fontSize=14;fontFamily=Helvetica;html=1;rounded=0;shadow=0;comic=0;labelBackgroundColor=none;strokeWidth=1;fillColor=#F2CC8F;strokeColor=#E07A5F;fontColor=#393C56;" parent="1" vertex="1">
          <mxGeometry x="-1725" y="1608" width="254" height="74" as="geometry" />
        </mxCell>
        <mxCell id="node5" value="&lt;p style=&quot;margin:0px;margin-top:4px;text-align:center;&quot;&gt;&lt;b&gt;AircraftServiceImpl&lt;/b&gt;&lt;/p&gt;&lt;hr size=&quot;1&quot;/&gt;&lt;p style=&quot;margin:0 0 0 4px;line-height:1.6;&quot;&gt;+ AircraftServiceImpl(): &lt;/p&gt;&lt;hr size=&quot;1&quot;/&gt;&lt;p style=&quot;margin:0 0 0 4px;line-height:1.6;&quot;&gt;+ generateSeats(): ArrayList&amp;lt;Seat&amp;gt;&lt;/p&gt;" style="verticalAlign=top;align=left;overflow=fill;fontSize=14;fontFamily=Helvetica;html=1;rounded=0;shadow=0;comic=0;labelBackgroundColor=none;strokeWidth=1;fillColor=#F2CC8F;strokeColor=#E07A5F;fontColor=#393C56;" parent="1" vertex="1">
          <mxGeometry x="-1993" y="2544" width="254" height="96" as="geometry" />
        </mxCell>
        <mxCell id="node34" value="&lt;p style=&quot;margin:0px;margin-top:4px;text-align:center;&quot;&gt;&lt;b&gt;Airline&lt;/b&gt;&lt;/p&gt;&lt;hr size=&quot;1&quot;/&gt;&lt;p style=&quot;margin:0 0 0 4px;line-height:1.6;&quot;&gt;+ Airline(): &lt;/p&gt;&lt;hr size=&quot;1&quot;/&gt;&lt;p style=&quot;margin:0 0 0 4px;line-height:1.6;&quot;&gt;- name: String&lt;br/&gt;- aircrafts: List&amp;lt;Aircraft&amp;gt;&lt;br/&gt;- priceList: PriceList&lt;br/&gt;- code: String&lt;br/&gt;- id: long&lt;/p&gt;&lt;hr size=&quot;1&quot;/&gt;&lt;p style=&quot;margin:0 0 0 4px;line-height:1.6;&quot;&gt;+ getCode(): String&lt;br/&gt;+ getId(): long&lt;br/&gt;+ getName(): String&lt;br/&gt;+ getAircrafts(): List&amp;lt;Aircraft&amp;gt;&lt;br/&gt;+ getPriceList(): PriceList&lt;br/&gt;+ setId(long): void&lt;br/&gt;+ setName(String): void&lt;br/&gt;+ hashCode(): int&lt;br/&gt;+ setCode(String): void&lt;br/&gt;# canEqual(Object): boolean&lt;br/&gt;+ setAircrafts(List&amp;lt;Aircraft&amp;gt;): void&lt;br/&gt;+ toString(): String&lt;br/&gt;+ setPriceList(PriceList): void&lt;br/&gt;+ equals(Object): boolean&lt;/p&gt;" style="verticalAlign=top;align=left;overflow=fill;fontSize=14;fontFamily=Helvetica;html=1;rounded=0;shadow=0;comic=0;labelBackgroundColor=none;strokeWidth=1;fillColor=#F2CC8F;strokeColor=#E07A5F;fontColor=#393C56;" parent="1" vertex="1">
          <mxGeometry x="-999" y="2291" width="250" height="595" as="geometry" />
        </mxCell>
        <mxCell id="node22" value="&lt;p style=&quot;margin:0px;margin-top:4px;text-align:center;&quot;&gt;&lt;b&gt;Airport&lt;/b&gt;&lt;/p&gt;&lt;hr size=&quot;1&quot;/&gt;&lt;p style=&quot;margin:0 0 0 4px;line-height:1.6;&quot;&gt;+ Airport(String, String, Address): &lt;br/&gt;+ Airport(): &lt;/p&gt;&lt;hr size=&quot;1&quot;/&gt;&lt;p style=&quot;margin:0 0 0 4px;line-height:1.6;&quot;&gt;- name: String&lt;br/&gt;- id: long&lt;br/&gt;- code: String&lt;br/&gt;- address: Address&lt;/p&gt;&lt;hr size=&quot;1&quot;/&gt;&lt;p style=&quot;margin:0 0 0 4px;line-height:1.6;&quot;&gt;+ getAddress(): Address&lt;br/&gt;+ getId(): long&lt;br/&gt;+ getName(): String&lt;br/&gt;+ getCode(): String&lt;br/&gt;+ setId(long): void&lt;br/&gt;+ setName(String): void&lt;br/&gt;+ setCode(String): void&lt;br/&gt;+ setAddress(Address): void&lt;br/&gt;+ equals(Object): boolean&lt;br/&gt;# canEqual(Object): boolean&lt;br/&gt;+ hashCode(): int&lt;br/&gt;+ toString(): String&lt;/p&gt;" style="verticalAlign=top;align=left;overflow=fill;fontSize=14;fontFamily=Helvetica;html=1;rounded=0;shadow=0;comic=0;labelBackgroundColor=none;strokeWidth=1;fillColor=#F2CC8F;strokeColor=#E07A5F;fontColor=#393C56;" parent="1" vertex="1">
          <mxGeometry x="2986" y="671" width="249" height="539" as="geometry" />
        </mxCell>
        <mxCell id="node41" value="&lt;p style=&quot;margin:0px;margin-top:4px;text-align:center;&quot;&gt;&lt;b&gt;CreateReservationProcess&lt;/b&gt;&lt;/p&gt;&lt;hr size=&quot;1&quot;/&gt;&lt;p style=&quot;margin:0 0 0 4px;line-height:1.6;&quot;&gt;~ CreateReservationProcess(FlightInstanceRepository, FlightReservationRepository, PassengerRepository, ItineraryRepository, SettingSeatMapProcess): &lt;/p&gt;&lt;hr size=&quot;1&quot;/&gt;&lt;p style=&quot;margin:0 0 0 4px;line-height:1.6;&quot;&gt;- itineraryRepository: ItineraryRepository&lt;br/&gt;- passengerRepository: PassengerRepository&lt;br/&gt;- flightReservationRepository: FlightReservationRepository&lt;br/&gt;- settingSeatMapProcess: SettingSeatMapProcess&lt;br/&gt;- flightInstanceRepository: FlightInstanceRepository&lt;/p&gt;&lt;hr size=&quot;1&quot;/&gt;&lt;p style=&quot;margin:0 0 0 4px;line-height:1.6;&quot;&gt;+ handler(ReserveItineraryRequest, Itinerary): Itinerary&lt;/p&gt;" style="verticalAlign=top;align=left;overflow=fill;fontSize=14;fontFamily=Helvetica;html=1;rounded=0;shadow=0;comic=0;labelBackgroundColor=none;strokeWidth=1;fillColor=#F2CC8F;strokeColor=#E07A5F;fontColor=#393C56;" parent="1" vertex="1">
          <mxGeometry x="-1007" y="4564" width="412" height="231" as="geometry" />
        </mxCell>
        <mxCell id="node38" value="&lt;p style=&quot;margin:0px;margin-top:4px;text-align:center;&quot;&gt;&lt;b&gt;Crew&lt;/b&gt;&lt;/p&gt;&lt;hr size=&quot;1&quot;/&gt;&lt;p style=&quot;margin:0 0 0 4px;line-height:1.6;&quot;&gt;+ Crew(): &lt;/p&gt;&lt;hr size=&quot;1&quot;/&gt;&lt;p style=&quot;margin:0 0 0 4px;line-height:1.6;&quot;&gt;+ toString(): String&lt;br/&gt;+ equals(Object): boolean&lt;br/&gt;# canEqual(Object): boolean&lt;br/&gt;+ hashCode(): int&lt;/p&gt;" style="verticalAlign=top;align=left;overflow=fill;fontSize=14;fontFamily=Helvetica;html=1;rounded=0;shadow=0;comic=0;labelBackgroundColor=none;strokeWidth=1;fillColor=#F2CC8F;strokeColor=#E07A5F;fontColor=#393C56;" parent="1" vertex="1">
          <mxGeometry x="594" y="1551" width="210" height="173" as="geometry" />
        </mxCell>
        <mxCell id="node33" value="&lt;p style=&quot;margin:0px;margin-top:4px;text-align:center;&quot;&gt;&lt;b&gt;Customer&lt;/b&gt;&lt;/p&gt;&lt;hr size=&quot;1&quot;/&gt;&lt;p style=&quot;margin:0 0 0 4px;line-height:1.6;&quot;&gt;+ Customer(): &lt;/p&gt;&lt;hr size=&quot;1&quot;/&gt;&lt;p style=&quot;margin:0 0 0 4px;line-height:1.6;&quot;&gt;- frequentFlyerNumber: String&lt;/p&gt;&lt;hr size=&quot;1&quot;/&gt;&lt;p style=&quot;margin:0 0 0 4px;line-height:1.6;&quot;&gt;+ getFrequentFlyerNumber(): String&lt;br/&gt;+ setFrequentFlyerNumber(String): void&lt;br/&gt;+ toString(): String&lt;br/&gt;+ equals(Object): boolean&lt;br/&gt;# canEqual(Object): boolean&lt;br/&gt;+ hashCode(): int&lt;/p&gt;" style="verticalAlign=top;align=left;overflow=fill;fontSize=14;fontFamily=Helvetica;html=1;rounded=0;shadow=0;comic=0;labelBackgroundColor=none;strokeWidth=1;fillColor=#F2CC8F;strokeColor=#E07A5F;fontColor=#393C56;" parent="1" vertex="1">
          <mxGeometry x="824" y="1508" width="280" height="259" as="geometry" />
        </mxCell>
        <mxCell id="node28" value="&lt;p style=&quot;margin:0px;margin-top:4px;text-align:center;&quot;&gt;&lt;b&gt;EmailNotificationListener&lt;/b&gt;&lt;/p&gt;&lt;hr size=&quot;1&quot;/&gt;&lt;p style=&quot;margin:0 0 0 4px;line-height:1.6;&quot;&gt;+ EmailNotificationListener(JavaMailSender): &lt;/p&gt;&lt;hr size=&quot;1&quot;/&gt;&lt;p style=&quot;margin:0 0 0 4px;line-height:1.6;&quot;&gt;- emailSender: JavaMailSender&lt;/p&gt;&lt;hr size=&quot;1&quot;/&gt;&lt;p style=&quot;margin:0 0 0 4px;line-height:1.6;&quot;&gt;+ handleSend(Person, NotificationType): void&lt;/p&gt;" style="verticalAlign=top;align=left;overflow=fill;fontSize=14;fontFamily=Helvetica;html=1;rounded=0;shadow=0;comic=0;labelBackgroundColor=none;strokeWidth=1;fillColor=#F2CC8F;strokeColor=#E07A5F;fontColor=#393C56;" parent="1" vertex="1">
          <mxGeometry x="2159" y="3394" width="318" height="129" as="geometry" />
        </mxCell>
        <mxCell id="node37" value="&lt;p style=&quot;margin:0px;margin-top:4px;text-align:center;&quot;&gt;&lt;b&gt;Flight&lt;/b&gt;&lt;/p&gt;&lt;hr size=&quot;1&quot;/&gt;&lt;p style=&quot;margin:0 0 0 4px;line-height:1.6;&quot;&gt;+ Flight(String, Airport, Airport, Schedule): &lt;br/&gt;+ Flight(): &lt;/p&gt;&lt;hr size=&quot;1&quot;/&gt;&lt;p style=&quot;margin:0 0 0 4px;line-height:1.6;&quot;&gt;- arrival: Airport&lt;br/&gt;- schedule: Schedule&lt;br/&gt;- flightNumber: String&lt;br/&gt;- instances: List&amp;lt;FlightInstance&amp;gt;&lt;br/&gt;- departure: Airport&lt;br/&gt;- id: long&lt;/p&gt;&lt;hr size=&quot;1&quot;/&gt;&lt;p style=&quot;margin:0 0 0 4px;line-height:1.6;&quot;&gt;+ getDeparture(): Airport&lt;br/&gt;+ getId(): long&lt;br/&gt;+ setSchedule(Schedule): void&lt;br/&gt;+ toString(): String&lt;br/&gt;+ getFlightNumber(): String&lt;br/&gt;+ getArrival(): Airport&lt;br/&gt;+ getInstances(): List&amp;lt;FlightInstance&amp;gt;&lt;br/&gt;+ setInstances(List&amp;lt;FlightInstance&amp;gt;): void&lt;br/&gt;+ getSchedule(): Schedule&lt;br/&gt;+ setId(long): void&lt;br/&gt;+ setFlightNumber(String): void&lt;br/&gt;+ hashCode(): int&lt;br/&gt;+ equals(Object): boolean&lt;br/&gt;# canEqual(Object): boolean&lt;br/&gt;+ setDeparture(Airport): void&lt;br/&gt;+ setArrival(Airport): void&lt;/p&gt;" style="verticalAlign=top;align=left;overflow=fill;fontSize=14;fontFamily=Helvetica;html=1;rounded=0;shadow=0;comic=0;labelBackgroundColor=none;strokeWidth=1;fillColor=#F2CC8F;strokeColor=#E07A5F;fontColor=#393C56;" parent="1" vertex="1">
          <mxGeometry x="1576" y="1284" width="303" height="707" as="geometry" />
        </mxCell>
        <mxCell id="node26" value="&lt;p style=&quot;margin:0px;margin-top:4px;text-align:center;&quot;&gt;&lt;b&gt;FlightInstance&lt;/b&gt;&lt;/p&gt;&lt;hr size=&quot;1&quot;/&gt;&lt;p style=&quot;margin:0 0 0 4px;line-height:1.6;&quot;&gt;+ FlightInstance(): &lt;/p&gt;&lt;hr size=&quot;1&quot;/&gt;&lt;p style=&quot;margin:0 0 0 4px;line-height:1.6;&quot;&gt;- id: Long&lt;br/&gt;- flightSeats: List&amp;lt;FlightSeat&amp;gt;&lt;br/&gt;- gate: String&lt;br/&gt;- aircraft: Aircraft&lt;br/&gt;- flight: Flight&lt;br/&gt;- pilots: List&amp;lt;Pilot&amp;gt;&lt;br/&gt;- date: LocalDate&lt;br/&gt;- status: FlightStatus&lt;br/&gt;- crew: List&amp;lt;Crew&amp;gt;&lt;/p&gt;&lt;hr size=&quot;1&quot;/&gt;&lt;p style=&quot;margin:0 0 0 4px;line-height:1.6;&quot;&gt;+ getDate(): LocalDate&lt;br/&gt;+ getDepartureDateTime(): LocalDateTime&lt;br/&gt;+ getFlightSeats(): List&amp;lt;FlightSeat&amp;gt;&lt;br/&gt;+ setFlight(Flight): void&lt;br/&gt;+ getId(): Long&lt;br/&gt;+ toString(): String&lt;br/&gt;+ getFlight(): Flight&lt;br/&gt;+ getGate(): String&lt;br/&gt;+ getStatus(): FlightStatus&lt;br/&gt;+ equals(Object): boolean&lt;br/&gt;+ setStatus(FlightStatus): void&lt;br/&gt;+ setFlightSeats(List&amp;lt;FlightSeat&amp;gt;): void&lt;br/&gt;+ getAircraft(): Aircraft&lt;br/&gt;+ getCrew(): List&amp;lt;Crew&amp;gt;&lt;br/&gt;+ setCrew(List&amp;lt;Crew&amp;gt;): void&lt;br/&gt;+ setAircraft(Aircraft): void&lt;br/&gt;+ getPilots(): List&amp;lt;Pilot&amp;gt;&lt;br/&gt;+ setId(Long): void&lt;br/&gt;+ setDate(LocalDate): void&lt;br/&gt;# canEqual(Object): boolean&lt;br/&gt;+ hashCode(): int&lt;br/&gt;+ setPilots(List&amp;lt;Pilot&amp;gt;): void&lt;br/&gt;+ setGate(String): void&lt;br/&gt;+ getArrivalDateTime(): LocalDateTime&lt;/p&gt;" style="verticalAlign=top;align=left;overflow=fill;fontSize=14;fontFamily=Helvetica;html=1;rounded=0;shadow=0;comic=0;labelBackgroundColor=none;strokeWidth=1;fillColor=#F2CC8F;strokeColor=#E07A5F;fontColor=#393C56;" parent="1" vertex="1">
          <mxGeometry x="360" y="2095" width="295" height="987" as="geometry" />
        </mxCell>
        <mxCell id="node17" value="&lt;p style=&quot;margin:0px;margin-top:4px;text-align:center;&quot;&gt;&lt;b&gt;FlightReservation&lt;/b&gt;&lt;/p&gt;&lt;hr size=&quot;1&quot;/&gt;&lt;p style=&quot;margin:0 0 0 4px;line-height:1.6;&quot;&gt;+ FlightReservation(): &lt;/p&gt;&lt;hr size=&quot;1&quot;/&gt;&lt;p style=&quot;margin:0 0 0 4px;line-height:1.6;&quot;&gt;- reservationNumber: Long&lt;br/&gt;- status: ReservationStatus&lt;br/&gt;- flight: FlightInstance&lt;br/&gt;- seatMap: Map&amp;lt;Passenger, FlightSeat&amp;gt;&lt;/p&gt;&lt;hr size=&quot;1&quot;/&gt;&lt;p style=&quot;margin:0 0 0 4px;line-height:1.6;&quot;&gt;+ getPassengers(): Collection&amp;lt;Passenger&amp;gt;&lt;br/&gt;+ getFlight(): FlightInstance&lt;br/&gt;+ getReservationNumber(): Long&lt;br/&gt;+ getSeatMap(): Map&amp;lt;Passenger, FlightSeat&amp;gt;&lt;br/&gt;+ getStatus(): ReservationStatus&lt;br/&gt;+ setReservationNumber(Long): void&lt;br/&gt;+ setFlight(FlightInstance): void&lt;br/&gt;+ toString(): String&lt;br/&gt;+ setSeatMap(Map&amp;lt;Passenger, FlightSeat&amp;gt;): void&lt;br/&gt;+ setStatus(ReservationStatus): void&lt;br/&gt;+ equals(Object): boolean&lt;br/&gt;# canEqual(Object): boolean&lt;br/&gt;+ hashCode(): int&lt;br/&gt;+ getSeats(): Collection&amp;lt;FlightSeat&amp;gt;&lt;br/&gt;+ getSeatEntrySet(): Set&amp;lt;Entry&amp;lt;Passenger, FlightSeat&amp;gt;&amp;gt;&lt;/p&gt;" style="verticalAlign=top;align=left;overflow=fill;fontSize=14;fontFamily=Helvetica;html=1;rounded=0;shadow=0;comic=0;labelBackgroundColor=none;strokeWidth=1;fillColor=#F2CC8F;strokeColor=#E07A5F;fontColor=#393C56;" parent="1" vertex="1">
          <mxGeometry x="-241" y="3156" width="392" height="595" as="geometry" />
        </mxCell>
        <mxCell id="node23" value="&lt;p style=&quot;margin:0px;margin-top:4px;text-align:center;&quot;&gt;&lt;b&gt;FlightSeat&lt;/b&gt;&lt;/p&gt;&lt;hr size=&quot;1&quot;/&gt;&lt;p style=&quot;margin:0 0 0 4px;line-height:1.6;&quot;&gt;+ FlightSeat(): &lt;br/&gt;+ FlightSeat(float, String): &lt;/p&gt;&lt;hr size=&quot;1&quot;/&gt;&lt;p style=&quot;margin:0 0 0 4px;line-height:1.6;&quot;&gt;- id: Long&lt;br/&gt;- sort: SeatSort&lt;br/&gt;- reservationNumber: String&lt;br/&gt;- seatNumber: String&lt;br/&gt;- fare: float&lt;br/&gt;- type: SeatType&lt;/p&gt;&lt;hr size=&quot;1&quot;/&gt;&lt;p style=&quot;margin:0 0 0 4px;line-height:1.6;&quot;&gt;+ getReservationNumber(): String&lt;br/&gt;+ getFare(): float&lt;br/&gt;+ getId(): Long&lt;br/&gt;+ getSeatNumber(): String&lt;br/&gt;+ getType(): SeatType&lt;br/&gt;+ getSort(): SeatSort&lt;/p&gt;" style="verticalAlign=top;align=left;overflow=fill;fontSize=14;fontFamily=Helvetica;html=1;rounded=0;shadow=0;comic=0;labelBackgroundColor=none;strokeWidth=1;fillColor=#F2CC8F;strokeColor=#E07A5F;fontColor=#393C56;" parent="1" vertex="1">
          <mxGeometry x="-1277" y="1424" width="241" height="427" as="geometry" />
        </mxCell>
        <mxCell id="node9" value="&lt;p style=&quot;margin:0px;margin-top:4px;text-align:center;&quot;&gt;&lt;i&gt;&amp;lt;&amp;lt;interface&amp;gt;&amp;gt;&lt;/i&gt;&lt;br/&gt;&lt;b&gt;FlightService&lt;/b&gt;&lt;/p&gt;&lt;hr size=&quot;1&quot;/&gt;&lt;p style=&quot;margin:0 0 0 4px;line-height:1.6;&quot;&gt;+ getRoute(long[]): List&amp;lt;FlightInstance&amp;gt;&lt;br/&gt;+ reserve(ReserveItineraryRequest): boolean&lt;br/&gt;+ findRoutes(LocalDate, Airport, Airport): List&amp;lt;List&amp;lt;FlightInstance&amp;gt;&amp;gt;&lt;/p&gt;" style="verticalAlign=top;align=left;overflow=fill;fontSize=14;fontFamily=Helvetica;html=1;rounded=0;shadow=0;comic=0;labelBackgroundColor=none;strokeWidth=1;fillColor=#F2CC8F;strokeColor=#E07A5F;fontColor=#393C56;" parent="1" vertex="1">
          <mxGeometry x="2497" y="3396" width="466" height="144" as="geometry" />
        </mxCell>
        <mxCell id="node12" value="&lt;p style=&quot;margin:0px;margin-top:4px;text-align:center;&quot;&gt;&lt;b&gt;FlightServiceImpl&lt;/b&gt;&lt;/p&gt;&lt;hr size=&quot;1&quot;/&gt;&lt;p style=&quot;margin:0 0 0 4px;line-height:1.6;&quot;&gt;+ FlightServiceImpl(AircraftRepository, FlightInstanceRepository, ReservationChainServiceImpl): &lt;/p&gt;&lt;hr size=&quot;1&quot;/&gt;&lt;p style=&quot;margin:0 0 0 4px;line-height:1.6;&quot;&gt;- aircraftRepository: AircraftRepository&lt;br/&gt;- flightInstanceRepository: FlightInstanceRepository&lt;br/&gt;- reservationChainServiceImpl: ReservationChainServiceImpl&lt;/p&gt;&lt;hr size=&quot;1&quot;/&gt;&lt;p style=&quot;margin:0 0 0 4px;line-height:1.6;&quot;&gt;+ getRoute(long[]): List&amp;lt;FlightInstance&amp;gt;&lt;br/&gt;+ findRoutes(LocalDate, Airport, Airport): List&amp;lt;List&amp;lt;FlightInstance&amp;gt;&amp;gt;&lt;br/&gt;+ reserve(ReserveItineraryRequest): boolean&lt;/p&gt;" style="verticalAlign=top;align=left;overflow=fill;fontSize=14;fontFamily=Helvetica;html=1;rounded=0;shadow=0;comic=0;labelBackgroundColor=none;strokeWidth=1;fillColor=#F2CC8F;strokeColor=#E07A5F;fontColor=#393C56;" parent="1" vertex="1">
          <mxGeometry x="1290" y="5030" width="466" height="231" as="geometry" />
        </mxCell>
        <mxCell id="node27" value="&lt;p style=&quot;margin:0px;margin-top:4px;text-align:center;&quot;&gt;&lt;i&gt;&amp;lt;&amp;lt;enumeration&amp;gt;&amp;gt;&lt;/i&gt;&lt;br/&gt;&lt;b&gt;FlightStatus&lt;/b&gt;&lt;/p&gt;&lt;hr size=&quot;1&quot;/&gt;&lt;p style=&quot;margin:0 0 0 4px;line-height:1.6;&quot;&gt;+ FlightStatus(): &lt;/p&gt;&lt;hr size=&quot;1&quot;/&gt;&lt;p style=&quot;margin:0 0 0 4px;line-height:1.6;&quot;&gt;+ Scheduled: &lt;br/&gt;+ Unknown: &lt;br/&gt;+ Canceled: &lt;br/&gt;+ Landed: &lt;br/&gt;+ Arrived: &lt;br/&gt;+ Departed: &lt;br/&gt;+ Diverted: &lt;br/&gt;+ InAir: &lt;br/&gt;+ Active: &lt;br/&gt;+ Delayed: &lt;/p&gt;&lt;hr size=&quot;1&quot;/&gt;&lt;p style=&quot;margin:0 0 0 4px;line-height:1.6;&quot;&gt;+ valueOf(String): FlightStatus&lt;br/&gt;+ values(): FlightStatus[]&lt;/p&gt;" style="verticalAlign=top;align=left;overflow=fill;fontSize=14;fontFamily=Helvetica;html=1;rounded=0;shadow=0;comic=0;labelBackgroundColor=none;strokeWidth=1;fillColor=#F2CC8F;strokeColor=#E07A5F;fontColor=#393C56;" parent="1" vertex="1">
          <mxGeometry x="352" y="1438" width="222" height="399" as="geometry" />
        </mxCell>
        <mxCell id="node30" value="&lt;p style=&quot;margin:0px;margin-top:4px;text-align:center;&quot;&gt;&lt;b&gt;FrontDeskOfficer&lt;/b&gt;&lt;/p&gt;&lt;hr size=&quot;1&quot;/&gt;&lt;p style=&quot;margin:0 0 0 4px;line-height:1.6;&quot;&gt;+ FrontDeskOfficer(): &lt;/p&gt;&lt;hr size=&quot;1&quot;/&gt;&lt;p style=&quot;margin:0 0 0 4px;line-height:1.6;&quot;&gt;~ createItinerary(): boolean&lt;/p&gt;" style="verticalAlign=top;align=left;overflow=fill;fontSize=14;fontFamily=Helvetica;html=1;rounded=0;shadow=0;comic=0;labelBackgroundColor=none;strokeWidth=1;fillColor=#F2CC8F;strokeColor=#E07A5F;fontColor=#393C56;" parent="1" vertex="1">
          <mxGeometry x="1354" y="1593" width="202" height="96" as="geometry" />
        </mxCell>
        <mxCell id="node19" value="&lt;p style=&quot;margin:0px;margin-top:4px;text-align:center;&quot;&gt;&lt;b&gt;Itinerary&lt;/b&gt;&lt;/p&gt;&lt;hr size=&quot;1&quot;/&gt;&lt;p style=&quot;margin:0 0 0 4px;line-height:1.6;&quot;&gt;+ Itinerary(): &lt;/p&gt;&lt;hr size=&quot;1&quot;/&gt;&lt;p style=&quot;margin:0 0 0 4px;line-height:1.6;&quot;&gt;- id: long&lt;br/&gt;- finalAirport: Airport&lt;br/&gt;- creationDate: LocalDateTime&lt;br/&gt;- reservations: List&amp;lt;FlightReservation&amp;gt;&lt;br/&gt;- startingAirport: Airport&lt;/p&gt;&lt;hr size=&quot;1&quot;/&gt;&lt;p style=&quot;margin:0 0 0 4px;line-height:1.6;&quot;&gt;+ getCreationDate(): LocalDateTime&lt;br/&gt;+ getId(): long&lt;br/&gt;+ getStartingAirport(): Airport&lt;br/&gt;+ getFinalAirport(): Airport&lt;br/&gt;+ getReservations(): List&amp;lt;FlightReservation&amp;gt;&lt;br/&gt;+ setId(long): void&lt;br/&gt;+ setStartingAirport(Airport): void&lt;br/&gt;+ hashCode(): int&lt;br/&gt;+ setFinalAirport(Airport): void&lt;br/&gt;+ setCreationDate(LocalDateTime): void&lt;br/&gt;+ toString(): String&lt;br/&gt;+ setReservations(List&amp;lt;FlightReservation&amp;gt;): void&lt;br/&gt;+ equals(Object): boolean&lt;br/&gt;+ getAllPassengers(): Collection&amp;lt;Passenger&amp;gt;&lt;/p&gt;" style="verticalAlign=top;align=left;overflow=fill;fontSize=14;fontFamily=Helvetica;html=1;rounded=0;shadow=0;comic=0;labelBackgroundColor=none;strokeWidth=1;fillColor=#F2CC8F;strokeColor=#E07A5F;fontColor=#393C56;" parent="1" vertex="1">
          <mxGeometry x="349" y="3845" width="339" height="595" as="geometry" />
        </mxCell>
        <mxCell id="node10" value="&lt;p style=&quot;margin:0px;margin-top:4px;text-align:center;&quot;&gt;&lt;b&gt;Notification&lt;/b&gt;&lt;/p&gt;&lt;hr size=&quot;1&quot;/&gt;&lt;p style=&quot;margin:0 0 0 4px;line-height:1.6;&quot;&gt;+ Notification(): &lt;/p&gt;&lt;hr size=&quot;1&quot;/&gt;&lt;p style=&quot;margin:0 0 0 4px;line-height:1.6;&quot;&gt;- id: long&lt;br/&gt;- createdDate: Date&lt;br/&gt;- person: Person&lt;br/&gt;- type: NotificationType&lt;/p&gt;&lt;hr size=&quot;1&quot;/&gt;&lt;p style=&quot;margin:0 0 0 4px;line-height:1.6;&quot;&gt;+ setType(NotificationType): void&lt;br/&gt;+ getId(): long&lt;br/&gt;+ getType(): NotificationType&lt;br/&gt;+ getCreatedDate(): Date&lt;br/&gt;+ getPerson(): Person&lt;br/&gt;+ setId(long): void&lt;br/&gt;+ setCreatedDate(Date): void&lt;br/&gt;+ setPerson(Person): void&lt;br/&gt;+ equals(Object): boolean&lt;br/&gt;# canEqual(Object): boolean&lt;br/&gt;+ toString(): String&lt;br/&gt;+ hashCode(): int&lt;/p&gt;" style="verticalAlign=top;align=left;overflow=fill;fontSize=14;fontFamily=Helvetica;html=1;rounded=0;shadow=0;comic=0;labelBackgroundColor=none;strokeWidth=1;fillColor=#F2CC8F;strokeColor=#E07A5F;fontColor=#393C56;" parent="1" vertex="1">
          <mxGeometry x="1784" y="2333" width="243" height="511" as="geometry" />
        </mxCell>
        <mxCell id="node14" value="&lt;p style=&quot;margin:0px;margin-top:4px;text-align:center;&quot;&gt;&lt;i&gt;&amp;lt;&amp;lt;interface&amp;gt;&amp;gt;&lt;/i&gt;&lt;br/&gt;&lt;b&gt;NotificationListener&lt;/b&gt;&lt;/p&gt;&lt;hr size=&quot;1&quot;/&gt;&lt;p style=&quot;margin:0 0 0 4px;line-height:1.6;&quot;&gt;+ handleSend(Person, NotificationType): void&lt;/p&gt;" style="verticalAlign=top;align=left;overflow=fill;fontSize=14;fontFamily=Helvetica;html=1;rounded=0;shadow=0;comic=0;labelBackgroundColor=none;strokeWidth=1;fillColor=#F2CC8F;strokeColor=#E07A5F;fontColor=#393C56;" parent="1" vertex="1">
          <mxGeometry x="2403" y="2559" width="318" height="74" as="geometry" />
        </mxCell>
        <mxCell id="node42" value="&lt;p style=&quot;margin:0px;margin-top:4px;text-align:center;&quot;&gt;&lt;b&gt;NotificationReservationProcess&lt;/b&gt;&lt;/p&gt;&lt;hr size=&quot;1&quot;/&gt;&lt;p style=&quot;margin:0 0 0 4px;line-height:1.6;&quot;&gt;+ NotificationReservationProcess(NotificationServiceImpl): &lt;/p&gt;&lt;hr size=&quot;1&quot;/&gt;&lt;p style=&quot;margin:0 0 0 4px;line-height:1.6;&quot;&gt;- notificationServiceImpl: NotificationServiceImpl&lt;/p&gt;&lt;hr size=&quot;1&quot;/&gt;&lt;p style=&quot;margin:0 0 0 4px;line-height:1.6;&quot;&gt;+ handler(ReserveItineraryRequest, Itinerary): Itinerary&lt;/p&gt;" style="verticalAlign=top;align=left;overflow=fill;fontSize=14;fontFamily=Helvetica;html=1;rounded=0;shadow=0;comic=0;labelBackgroundColor=none;strokeWidth=1;fillColor=#F2CC8F;strokeColor=#E07A5F;fontColor=#393C56;" parent="1" vertex="1">
          <mxGeometry x="355" y="4620" width="400" height="129" as="geometry" />
        </mxCell>
        <mxCell id="node11" value="&lt;p style=&quot;margin:0px;margin-top:4px;text-align:center;&quot;&gt;&lt;b&gt;NotificationServiceImpl&lt;/b&gt;&lt;/p&gt;&lt;hr size=&quot;1&quot;/&gt;&lt;p style=&quot;margin:0 0 0 4px;line-height:1.6;&quot;&gt;# NotificationServiceImpl(NotificationRepository, EmailNotificationListener): &lt;/p&gt;&lt;hr size=&quot;1&quot;/&gt;&lt;p style=&quot;margin:0 0 0 4px;line-height:1.6;&quot;&gt;- notificationRepository: NotificationRepository&lt;br/&gt;- listeners: Vector&amp;lt;NotificationListener&amp;gt;&lt;/p&gt;&lt;hr size=&quot;1&quot;/&gt;&lt;p style=&quot;margin:0 0 0 4px;line-height:1.6;&quot;&gt;+ handle(Person, NotificationType): void&lt;br/&gt;+ register(NotificationListener): void&lt;/p&gt;" style="verticalAlign=top;align=left;overflow=fill;fontSize=14;fontFamily=Helvetica;html=1;rounded=0;shadow=0;comic=0;labelBackgroundColor=none;strokeWidth=1;fillColor=#F2CC8F;strokeColor=#E07A5F;fontColor=#393C56;" parent="1" vertex="1">
          <mxGeometry x="2173" y="4055" width="412" height="175" as="geometry" />
        </mxCell>
        <mxCell id="node13" value="&lt;p style=&quot;margin:0px;margin-top:4px;text-align:center;&quot;&gt;&lt;i&gt;&amp;lt;&amp;lt;enumeration&amp;gt;&amp;gt;&lt;/i&gt;&lt;br/&gt;&lt;b&gt;NotificationType&lt;/b&gt;&lt;/p&gt;&lt;hr size=&quot;1&quot;/&gt;&lt;p style=&quot;margin:0 0 0 4px;line-height:1.6;&quot;&gt;+ NotificationType(): &lt;/p&gt;&lt;hr size=&quot;1&quot;/&gt;&lt;p style=&quot;margin:0 0 0 4px;line-height:1.6;&quot;&gt;+ CreatedReservation: &lt;/p&gt;&lt;hr size=&quot;1&quot;/&gt;&lt;p style=&quot;margin:0 0 0 4px;line-height:1.6;&quot;&gt;+ values(): NotificationType[]&lt;br/&gt;+ valueOf(String): NotificationType&lt;/p&gt;" style="verticalAlign=top;align=left;overflow=fill;fontSize=14;fontFamily=Helvetica;html=1;rounded=0;shadow=0;comic=0;labelBackgroundColor=none;strokeWidth=1;fillColor=#F2CC8F;strokeColor=#E07A5F;fontColor=#393C56;" parent="1" vertex="1">
          <mxGeometry x="2048" y="1564" width="250" height="147" as="geometry" />
        </mxCell>
        <mxCell id="node25" value="&lt;p style=&quot;margin:0px;margin-top:4px;text-align:center;&quot;&gt;&lt;b&gt;Passenger&lt;/b&gt;&lt;/p&gt;&lt;hr size=&quot;1&quot;/&gt;&lt;p style=&quot;margin:0 0 0 4px;line-height:1.6;&quot;&gt;+ Passenger(): &lt;/p&gt;&lt;hr size=&quot;1&quot;/&gt;&lt;p style=&quot;margin:0 0 0 4px;line-height:1.6;&quot;&gt;+ toString(): String&lt;br/&gt;+ equals(Object): boolean&lt;br/&gt;# canEqual(Object): boolean&lt;br/&gt;+ hashCode(): int&lt;/p&gt;" style="verticalAlign=top;align=left;overflow=fill;fontSize=14;fontFamily=Helvetica;html=1;rounded=0;shadow=0;comic=0;labelBackgroundColor=none;strokeWidth=1;fillColor=#F2CC8F;strokeColor=#E07A5F;fontColor=#393C56;" parent="1" vertex="1">
          <mxGeometry x="-98" y="2502" width="210" height="173" as="geometry" />
        </mxCell>
        <mxCell id="node39" value="&lt;p style=&quot;margin:0px;margin-top:4px;text-align:center;&quot;&gt;&lt;b&gt;PaymentReservationProcess&lt;/b&gt;&lt;/p&gt;&lt;hr size=&quot;1&quot;/&gt;&lt;p style=&quot;margin:0 0 0 4px;line-height:1.6;&quot;&gt;+ PaymentReservationProcess(): &lt;/p&gt;&lt;hr size=&quot;1&quot;/&gt;&lt;p style=&quot;margin:0 0 0 4px;line-height:1.6;&quot;&gt;+ handler(ReserveItineraryRequest, Itinerary): Itinerary&lt;/p&gt;" style="verticalAlign=top;align=left;overflow=fill;fontSize=14;fontFamily=Helvetica;html=1;rounded=0;shadow=0;comic=0;labelBackgroundColor=none;strokeWidth=1;fillColor=#F2CC8F;strokeColor=#E07A5F;fontColor=#393C56;" parent="1" vertex="1">
          <mxGeometry x="-322" y="4635" width="369" height="96" as="geometry" />
        </mxCell>
        <mxCell id="node35" value="&lt;p style=&quot;margin:0px;margin-top:4px;text-align:center;&quot;&gt;&lt;b&gt;Person&lt;/b&gt;&lt;/p&gt;&lt;hr size=&quot;1&quot;/&gt;&lt;p style=&quot;margin:0 0 0 4px;line-height:1.6;&quot;&gt;+ Person(String, String, String): &lt;br/&gt;+ Person(): &lt;/p&gt;&lt;hr size=&quot;1&quot;/&gt;&lt;p style=&quot;margin:0 0 0 4px;line-height:1.6;&quot;&gt;- phone: String&lt;br/&gt;- address: Address&lt;br/&gt;- name: String&lt;br/&gt;- email: String&lt;/p&gt;&lt;hr size=&quot;1&quot;/&gt;&lt;p style=&quot;margin:0 0 0 4px;line-height:1.6;&quot;&gt;+ getEmail(): String&lt;br/&gt;+ getPhone(): String&lt;br/&gt;+ getName(): String&lt;br/&gt;+ getAddress(): Address&lt;br/&gt;+ setEmail(String): void&lt;br/&gt;+ setPhone(String): void&lt;br/&gt;+ setName(String): void&lt;br/&gt;+ setAddress(Address): void&lt;br/&gt;+ equals(Object): boolean&lt;br/&gt;+ toString(): String&lt;br/&gt;# canEqual(Object): boolean&lt;br/&gt;+ hashCode(): int&lt;/p&gt;" style="verticalAlign=top;align=left;overflow=fill;fontSize=14;fontFamily=Helvetica;html=1;rounded=0;shadow=0;comic=0;labelBackgroundColor=none;strokeWidth=1;fillColor=#F2CC8F;strokeColor=#E07A5F;fontColor=#393C56;" parent="1" vertex="1">
          <mxGeometry x="1742" y="671" width="235" height="539" as="geometry" />
        </mxCell>
        <mxCell id="node21" value="&lt;p style=&quot;margin:0px;margin-top:4px;text-align:center;&quot;&gt;&lt;b&gt;Pilot&lt;/b&gt;&lt;/p&gt;&lt;hr size=&quot;1&quot;/&gt;&lt;p style=&quot;margin:0 0 0 4px;line-height:1.6;&quot;&gt;+ Pilot(): &lt;/p&gt;&lt;hr size=&quot;1&quot;/&gt;&lt;p style=&quot;margin:0 0 0 4px;line-height:1.6;&quot;&gt;+ toString(): String&lt;br/&gt;+ equals(Object): boolean&lt;br/&gt;# canEqual(Object): boolean&lt;br/&gt;+ hashCode(): int&lt;/p&gt;" style="verticalAlign=top;align=left;overflow=fill;fontSize=14;fontFamily=Helvetica;html=1;rounded=0;shadow=0;comic=0;labelBackgroundColor=none;strokeWidth=1;fillColor=#F2CC8F;strokeColor=#E07A5F;fontColor=#393C56;" parent="1" vertex="1">
          <mxGeometry x="1124" y="1551" width="210" height="173" as="geometry" />
        </mxCell>
        <mxCell id="node36" value="&lt;p style=&quot;margin:0px;margin-top:4px;text-align:center;&quot;&gt;&lt;b&gt;PriceList&lt;/b&gt;&lt;/p&gt;&lt;hr size=&quot;1&quot;/&gt;&lt;p style=&quot;margin:0 0 0 4px;line-height:1.6;&quot;&gt;+ PriceList(): &lt;/p&gt;&lt;hr size=&quot;1&quot;/&gt;&lt;p style=&quot;margin:0 0 0 4px;line-height:1.6;&quot;&gt;- prices: Map&amp;lt;SeatSort, Double&amp;gt;&lt;br/&gt;- defaultPrice: Double&lt;br/&gt;- id: long&lt;/p&gt;&lt;hr size=&quot;1&quot;/&gt;&lt;p style=&quot;margin:0 0 0 4px;line-height:1.6;&quot;&gt;+ setId(long): void&lt;br/&gt;+ getId(): long&lt;br/&gt;+ getPrices(): Map&amp;lt;SeatSort, Double&amp;gt;&lt;br/&gt;+ getDefaultPrice(): Double&lt;br/&gt;+ setPrices(Map&amp;lt;SeatSort, Double&amp;gt;): void&lt;br/&gt;+ setDefaultPrice(Double): void&lt;br/&gt;+ equals(Object): boolean&lt;br/&gt;# canEqual(Object): boolean&lt;br/&gt;+ hashCode(): int&lt;br/&gt;+ toString(): String&lt;/p&gt;" style="verticalAlign=top;align=left;overflow=fill;fontSize=14;fontFamily=Helvetica;html=1;rounded=0;shadow=0;comic=0;labelBackgroundColor=none;strokeWidth=1;fillColor=#F2CC8F;strokeColor=#E07A5F;fontColor=#393C56;" parent="1" vertex="1">
          <mxGeometry x="-1996" y="727" width="298" height="427" as="geometry" />
        </mxCell>
        <mxCell id="node3" value="&lt;p style=&quot;margin:0px;margin-top:4px;text-align:center;&quot;&gt;&lt;i&gt;&amp;lt;&amp;lt;interface&amp;gt;&amp;gt;&lt;/i&gt;&lt;br/&gt;&lt;b&gt;ProcessChainService&lt;R, T&gt;&lt;/b&gt;&lt;/p&gt;&lt;hr size=&quot;1&quot;/&gt;&lt;p style=&quot;margin:0 0 0 4px;line-height:1.6;&quot;&gt;+ evalute(R, T): T&lt;/p&gt;" style="verticalAlign=top;align=left;overflow=fill;fontSize=14;fontFamily=Helvetica;html=1;rounded=0;shadow=0;comic=0;labelBackgroundColor=none;strokeWidth=1;fillColor=#F2CC8F;strokeColor=#E07A5F;fontColor=#393C56;" parent="1" vertex="1">
          <mxGeometry x="67" y="4650" width="267" height="74" as="geometry" />
        </mxCell>
        <mxCell id="node6" value="&lt;p style=&quot;margin:0px;margin-top:4px;text-align:center;&quot;&gt;&lt;i&gt;&amp;lt;&amp;lt;interface&amp;gt;&amp;gt;&lt;/i&gt;&lt;br/&gt;&lt;b&gt;ProcessElement&lt;R, T&gt;&lt;/b&gt;&lt;/p&gt;&lt;hr size=&quot;1&quot;/&gt;&lt;p style=&quot;margin:0 0 0 4px;line-height:1.6;&quot;&gt;+ handler(R, T): T&lt;/p&gt;" style="verticalAlign=top;align=left;overflow=fill;fontSize=14;fontFamily=Helvetica;html=1;rounded=0;shadow=0;comic=0;labelBackgroundColor=none;strokeWidth=1;fillColor=#F2CC8F;strokeColor=#E07A5F;fontColor=#393C56;" parent="1" vertex="1">
          <mxGeometry x="-1719" y="2559" width="228" height="74" as="geometry" />
        </mxCell>
        <mxCell id="node18" value="&lt;p style=&quot;margin:0px;margin-top:4px;text-align:center;&quot;&gt;&lt;b&gt;ReservationChainServiceImpl&lt;/b&gt;&lt;/p&gt;&lt;hr size=&quot;1&quot;/&gt;&lt;p style=&quot;margin:0 0 0 4px;line-height:1.6;&quot;&gt;+ ReservationChainServiceImpl(CreateReservationProcess, PaymentReservationProcess, NotificationReservationProcess): &lt;/p&gt;&lt;hr size=&quot;1&quot;/&gt;&lt;p style=&quot;margin:0 0 0 4px;line-height:1.6;&quot;&gt;- chain: List&amp;lt;AbstractProcessElement&amp;lt;ReserveItineraryRequest, Itinerary&amp;gt;&amp;gt;&lt;/p&gt;&lt;hr size=&quot;1&quot;/&gt;&lt;p style=&quot;margin:0 0 0 4px;line-height:1.6;&quot;&gt;+ evalute(ReserveItineraryRequest, Itinerary): Itinerary&lt;/p&gt;" style="verticalAlign=top;align=left;overflow=fill;fontSize=14;fontFamily=Helvetica;html=1;rounded=0;shadow=0;comic=0;labelBackgroundColor=none;strokeWidth=1;fillColor=#F2CC8F;strokeColor=#E07A5F;fontColor=#393C56;" parent="1" vertex="1">
          <mxGeometry x="-391" y="4849" width="507" height="129" as="geometry" />
        </mxCell>
        <mxCell id="node29" value="&lt;p style=&quot;margin:0px;margin-top:4px;text-align:center;&quot;&gt;&lt;i&gt;&amp;lt;&amp;lt;enumeration&amp;gt;&amp;gt;&lt;/i&gt;&lt;br/&gt;&lt;b&gt;ReservationStatus&lt;/b&gt;&lt;/p&gt;&lt;hr size=&quot;1&quot;/&gt;&lt;p style=&quot;margin:0 0 0 4px;line-height:1.6;&quot;&gt;+ ReservationStatus(): &lt;/p&gt;&lt;hr size=&quot;1&quot;/&gt;&lt;p style=&quot;margin:0 0 0 4px;line-height:1.6;&quot;&gt;+ Abandoned: &lt;br/&gt;+ Requested: &lt;br/&gt;+ Confirmed: &lt;br/&gt;+ CheckedIn: &lt;br/&gt;+ Canceled: &lt;br/&gt;+ Closed: &lt;br/&gt;+ Pending: &lt;/p&gt;&lt;hr size=&quot;1&quot;/&gt;&lt;p style=&quot;margin:0 0 0 4px;line-height:1.6;&quot;&gt;+ values(): ReservationStatus[]&lt;br/&gt;+ valueOf(String): ReservationStatus&lt;/p&gt;" style="verticalAlign=top;align=left;overflow=fill;fontSize=14;fontFamily=Helvetica;html=1;rounded=0;shadow=0;comic=0;labelBackgroundColor=none;strokeWidth=1;fillColor=#F2CC8F;strokeColor=#E07A5F;fontColor=#393C56;" parent="1" vertex="1">
          <mxGeometry x="-658" y="2431" width="259" height="315" as="geometry" />
        </mxCell>
        <mxCell id="node31" value="&lt;p style=&quot;margin:0px;margin-top:4px;text-align:center;&quot;&gt;&lt;b&gt;Schedule&lt;/b&gt;&lt;/p&gt;&lt;hr size=&quot;1&quot;/&gt;&lt;p style=&quot;margin:0 0 0 4px;line-height:1.6;&quot;&gt;+ Schedule(DayOfWeek, LocalTime, LocalTime): &lt;br/&gt;+ Schedule(): &lt;/p&gt;&lt;hr size=&quot;1&quot;/&gt;&lt;p style=&quot;margin:0 0 0 4px;line-height:1.6;&quot;&gt;~ dayOfWeek: DayOfWeek&lt;br/&gt;~ departureTime: LocalTime&lt;br/&gt;~ arrivalTime: LocalTime&lt;/p&gt;&lt;hr size=&quot;1&quot;/&gt;&lt;p style=&quot;margin:0 0 0 4px;line-height:1.6;&quot;&gt;+ getArrivalTime(): LocalTime&lt;br/&gt;+ getDayOfWeek(): DayOfWeek&lt;br/&gt;+ getDepartureTime(): LocalTime&lt;br/&gt;+ setDayOfWeek(DayOfWeek): void&lt;br/&gt;+ setDepartureTime(LocalTime): void&lt;br/&gt;+ setArrivalTime(LocalTime): void&lt;br/&gt;+ toString(): String&lt;br/&gt;+ equals(Object): boolean&lt;br/&gt;# canEqual(Object): boolean&lt;br/&gt;+ hashCode(): int&lt;/p&gt;" style="verticalAlign=top;align=left;overflow=fill;fontSize=14;fontFamily=Helvetica;html=1;rounded=0;shadow=0;comic=0;labelBackgroundColor=none;strokeWidth=1;fillColor=#F2CC8F;strokeColor=#E07A5F;fontColor=#393C56;" parent="1" vertex="1">
          <mxGeometry x="688" y="713" width="334" height="455" as="geometry" />
        </mxCell>
        <mxCell id="node32" value="&lt;p style=&quot;margin:0px;margin-top:4px;text-align:center;&quot;&gt;&lt;b&gt;Seat&lt;/b&gt;&lt;/p&gt;&lt;hr size=&quot;1&quot;/&gt;&lt;p style=&quot;margin:0 0 0 4px;line-height:1.6;&quot;&gt;+ Seat(): &lt;br/&gt;+ Seat(SeatSort): &lt;/p&gt;&lt;hr size=&quot;1&quot;/&gt;&lt;p style=&quot;margin:0 0 0 4px;line-height:1.6;&quot;&gt;- sort: SeatSort&lt;br/&gt;- id: long&lt;br/&gt;- seatNumber: String&lt;br/&gt;- type: SeatType&lt;/p&gt;&lt;hr size=&quot;1&quot;/&gt;&lt;p style=&quot;margin:0 0 0 4px;line-height:1.6;&quot;&gt;+ setId(long): void&lt;br/&gt;+ getSeatNumber(): String&lt;br/&gt;+ getId(): long&lt;br/&gt;+ toString(): String&lt;br/&gt;+ getType(): SeatType&lt;br/&gt;+ getSort(): SeatSort&lt;br/&gt;+ setSeatNumber(String): void&lt;br/&gt;+ setType(SeatType): void&lt;br/&gt;+ setSort(SeatSort): void&lt;br/&gt;+ equals(Object): boolean&lt;br/&gt;# canEqual(Object): boolean&lt;br/&gt;+ hashCode(): int&lt;/p&gt;" style="verticalAlign=top;align=left;overflow=fill;fontSize=14;fontFamily=Helvetica;html=1;rounded=0;shadow=0;comic=0;labelBackgroundColor=none;strokeWidth=1;fillColor=#F2CC8F;strokeColor=#E07A5F;fontColor=#393C56;" parent="1" vertex="1">
          <mxGeometry x="-769" y="671" width="222" height="539" as="geometry" />
        </mxCell>
        <mxCell id="node15" value="&lt;p style=&quot;margin:0px;margin-top:4px;text-align:center;&quot;&gt;&lt;i&gt;&amp;lt;&amp;lt;enumeration&amp;gt;&amp;gt;&lt;/i&gt;&lt;br/&gt;&lt;b&gt;SeatSort&lt;/b&gt;&lt;/p&gt;&lt;hr size=&quot;1&quot;/&gt;&lt;p style=&quot;margin:0 0 0 4px;line-height:1.6;&quot;&gt;+ SeatSort(): &lt;/p&gt;&lt;hr size=&quot;1&quot;/&gt;&lt;p style=&quot;margin:0 0 0 4px;line-height:1.6;&quot;&gt;+ Economy: &lt;br/&gt;+ EconomyPlus: &lt;br/&gt;+ PreferredEconomy: &lt;br/&gt;+ Business: &lt;br/&gt;+ FirstClass: &lt;/p&gt;&lt;hr size=&quot;1&quot;/&gt;&lt;p style=&quot;margin:0 0 0 4px;line-height:1.6;&quot;&gt;+ values(): SeatSort[]&lt;br/&gt;+ valueOf(String): SeatSort&lt;/p&gt;" style="verticalAlign=top;align=left;overflow=fill;fontSize=14;fontFamily=Helvetica;html=1;rounded=0;shadow=0;comic=0;labelBackgroundColor=none;strokeWidth=1;fillColor=#F2CC8F;strokeColor=#E07A5F;fontColor=#393C56;" parent="1" vertex="1">
          <mxGeometry x="-1786" y="168" width="200" height="259" as="geometry" />
        </mxCell>
        <mxCell id="node20" value="&lt;p style=&quot;margin:0px;margin-top:4px;text-align:center;&quot;&gt;&lt;i&gt;&amp;lt;&amp;lt;enumeration&amp;gt;&amp;gt;&lt;/i&gt;&lt;br/&gt;&lt;b&gt;SeatType&lt;/b&gt;&lt;/p&gt;&lt;hr size=&quot;1&quot;/&gt;&lt;p style=&quot;margin:0 0 0 4px;line-height:1.6;&quot;&gt;+ SeatType(): &lt;/p&gt;&lt;hr size=&quot;1&quot;/&gt;&lt;p style=&quot;margin:0 0 0 4px;line-height:1.6;&quot;&gt;+ EmergencyExit: &lt;br/&gt;+ Regular: &lt;br/&gt;+ ExtraLegRoom: &lt;br/&gt;+ Accessible: &lt;/p&gt;&lt;hr size=&quot;1&quot;/&gt;&lt;p style=&quot;margin:0 0 0 4px;line-height:1.6;&quot;&gt;+ valueOf(String): SeatType&lt;br/&gt;+ values(): SeatType[]&lt;/p&gt;" style="verticalAlign=top;align=left;overflow=fill;fontSize=14;fontFamily=Helvetica;html=1;rounded=0;shadow=0;comic=0;labelBackgroundColor=none;strokeWidth=1;fillColor=#F2CC8F;strokeColor=#E07A5F;fontColor=#393C56;" parent="1" vertex="1">
          <mxGeometry x="-760" y="182" width="205" height="231" as="geometry" />
        </mxCell>
        <mxCell id="node40" value="&lt;p style=&quot;margin:0px;margin-top:4px;text-align:center;&quot;&gt;&lt;b&gt;SettingSeatMapProcess&lt;/b&gt;&lt;/p&gt;&lt;hr size=&quot;1&quot;/&gt;&lt;p style=&quot;margin:0 0 0 4px;line-height:1.6;&quot;&gt;+ SettingSeatMapProcess(FlightReservationRepository): &lt;/p&gt;&lt;hr size=&quot;1&quot;/&gt;&lt;p style=&quot;margin:0 0 0 4px;line-height:1.6;&quot;&gt;- flightReservationRepository: FlightReservationRepository&lt;/p&gt;&lt;hr size=&quot;1&quot;/&gt;&lt;p style=&quot;margin:0 0 0 4px;line-height:1.6;&quot;&gt;+ handler(Passenger[], FlightReservation): FlightReservation&lt;/p&gt;" style="verticalAlign=top;align=left;overflow=fill;fontSize=14;fontFamily=Helvetica;html=1;rounded=0;shadow=0;comic=0;labelBackgroundColor=none;strokeWidth=1;fillColor=#F2CC8F;strokeColor=#E07A5F;fontColor=#393C56;" parent="1" vertex="1">
          <mxGeometry x="-955" y="4083" width="411" height="129" as="geometry" />
        </mxCell>
        <mxCell id="node0" value="&lt;p style=&quot;margin:0px;margin-top:4px;text-align:center;&quot;&gt;&lt;i&gt;&amp;lt;&amp;lt;package&amp;gt;&amp;gt;&lt;/i&gt;&lt;br/&gt;&lt;b&gt;package  fiit.oop.oop_ticket_ordering_system.api&lt;/b&gt;&lt;/p&gt;&lt;hr size=&quot;1&quot;/&gt;" style="verticalAlign=top;align=left;overflow=fill;fontSize=14;fontFamily=Helvetica;html=1;rounded=0;shadow=0;comic=0;labelBackgroundColor=none;strokeWidth=1;fillColor=#F2CC8F;strokeColor=#E07A5F;fontColor=#393C56;" parent="1" vertex="1">
          <mxGeometry x="-996" y="5306" width="407" height="35" as="geometry" />
        </mxCell>
        <mxCell id="node2" value="&lt;p style=&quot;margin:0px;margin-top:4px;text-align:center;&quot;&gt;&lt;i&gt;&amp;lt;&amp;lt;package&amp;gt;&amp;gt;&lt;/i&gt;&lt;br/&gt;&lt;b&gt;package  fiit.oop.oop_ticket_ordering_system.dao.repositories&lt;/b&gt;&lt;/p&gt;&lt;hr size=&quot;1&quot;/&gt;" style="verticalAlign=top;align=left;overflow=fill;fontSize=14;fontFamily=Helvetica;html=1;rounded=0;shadow=0;comic=0;labelBackgroundColor=none;strokeWidth=1;fillColor=#F2CC8F;strokeColor=#E07A5F;fontColor=#393C56;" parent="1" vertex="1">
          <mxGeometry x="-2013" y="5306" width="510" height="35" as="geometry" />
        </mxCell>
        <mxCell id="node1" value="&lt;p style=&quot;margin:0px;margin-top:4px;text-align:center;&quot;&gt;&lt;i&gt;&amp;lt;&amp;lt;package&amp;gt;&amp;gt;&lt;/i&gt;&lt;br/&gt;&lt;b&gt;package  fiit.oop.oop_ticket_ordering_system.utils&lt;/b&gt;&lt;/p&gt;&lt;hr size=&quot;1&quot;/&gt;" style="verticalAlign=top;align=left;overflow=fill;fontSize=14;fontFamily=Helvetica;html=1;rounded=0;shadow=0;comic=0;labelBackgroundColor=none;strokeWidth=1;fillColor=#F2CC8F;strokeColor=#E07A5F;fontColor=#393C56;" parent="1" vertex="1">
          <mxGeometry x="-1458" y="5306" width="417" height="35" as="geometry" />
        </mxCell>
        <mxCell id="edge2" value="" style="html=1;rounded=1;edgeStyle=orthogonalEdgeStyle;dashed=1;startArrow=none;endArrow=block;endSize=12;strokeColor=#E07A5F;exitX=0.500;exitY=0.000;exitDx=0;exitDy=0;entryX=0.750;entryY=1.001;entryDx=0;entryDy=0;labelBackgroundColor=none;fontColor=default;" parent="1" source="node7" target="node6" edge="1">
          <mxGeometry width="50" height="50" relative="1" as="geometry">
            <Array as="points">
              <mxPoint x="-1526" y="3134" />
              <mxPoint x="-1548" y="3134" />
            </Array>
          </mxGeometry>
        </mxCell>
        <mxCell id="edge10" value="" style="html=1;rounded=1;edgeStyle=orthogonalEdgeStyle;dashed=0;startArrow=none;endArrow=block;endSize=12;strokeColor=#E07A5F;exitX=0.500;exitY=0.000;exitDx=0;exitDy=0;entryX=0.167;entryY=1.000;entryDx=0;entryDy=0;labelBackgroundColor=none;fontColor=default;" parent="1" source="node16" target="node35" edge="1">
          <mxGeometry width="50" height="50" relative="1" as="geometry">
            <Array as="points">
              <mxPoint x="227" y="1262" />
              <mxPoint x="772" y="1262" />
              <mxPoint x="772" y="1232" />
              <mxPoint x="1781" y="1232" />
            </Array>
          </mxGeometry>
        </mxCell>
        <mxCell id="edge58" value="" style="html=1;rounded=1;edgeStyle=orthogonalEdgeStyle;dashed=0;startArrow=diamondThinstartSize=12;endArrow=openThin;endSize=12;strokeColor=#E07A5F;exitX=0.500;exitY=0.000;exitDx=0;exitDy=0;entryX=0.833;entryY=1.000;entryDx=0;entryDy=0;labelBackgroundColor=none;fontColor=default;" parent="1" source="node24" target="node32" edge="1">
          <mxGeometry width="50" height="50" relative="1" as="geometry">
            <Array as="points">
              <mxPoint x="-492" y="1252" />
              <mxPoint x="-584" y="1252" />
            </Array>
          </mxGeometry>
        </mxCell>
        <mxCell id="label348" value="1" style="edgeLabel;resizable=0;html=1;align=left;verticalAlign=top;strokeColor=#E07A5F;labelBackgroundColor=none;fontColor=#393C56;" parent="edge58" vertex="1" connectable="0">
          <mxGeometry x="-503" y="1301" as="geometry" />
        </mxCell>
        <mxCell id="label352" value="*" style="edgeLabel;resizable=0;html=1;align=left;verticalAlign=top;strokeColor=#E07A5F;labelBackgroundColor=none;fontColor=#393C56;" parent="edge58" vertex="1" connectable="0">
          <mxGeometry x="-593" y="1221" as="geometry" />
        </mxCell>
        <mxCell id="label353" value="seats" style="edgeLabel;resizable=0;html=1;align=left;verticalAlign=top;strokeColor=#E07A5F;labelBackgroundColor=none;fontColor=#393C56;" parent="edge58" vertex="1" connectable="0">
          <mxGeometry x="-584" y="1221" as="geometry" />
        </mxCell>
        <mxCell id="edge42" value="" style="html=1;rounded=1;edgeStyle=orthogonalEdgeStyle;dashed=1;startArrow=none;endArrow=openThin;endSize=12;strokeColor=#E07A5F;exitX=0.500;exitY=0.001;exitDx=0;exitDy=0;entryX=0.500;entryY=1.000;entryDx=0;entryDy=0;labelBackgroundColor=none;fontColor=default;" parent="1" source="node8" target="node32" edge="1">
          <mxGeometry width="50" height="50" relative="1" as="geometry">
            <Array as="points">
              <mxPoint x="-1598" y="1262" />
              <mxPoint x="-1537" y="1262" />
              <mxPoint x="-1537" y="1242" />
              <mxPoint x="-658" y="1242" />
            </Array>
          </mxGeometry>
        </mxCell>
        <mxCell id="edge0" value="" style="html=1;rounded=1;edgeStyle=orthogonalEdgeStyle;dashed=1;startArrow=none;endArrow=block;endSize=12;strokeColor=#E07A5F;exitX=0.833;exitY=0.000;exitDx=0;exitDy=0;entryX=0.500;entryY=1.001;entryDx=0;entryDy=0;labelBackgroundColor=none;fontColor=default;" parent="1" source="node5" target="node8" edge="1">
          <mxGeometry width="50" height="50" relative="1" as="geometry">
            <Array as="points">
              <mxPoint x="-1781" y="2073" />
              <mxPoint x="-1598" y="2073" />
            </Array>
          </mxGeometry>
        </mxCell>
        <mxCell id="edge49" value="" style="html=1;rounded=1;edgeStyle=orthogonalEdgeStyle;dashed=1;startArrow=none;endArrow=openThin;endSize=12;strokeColor=#E07A5F;exitX=0.500;exitY=0.000;exitDx=0;exitDy=0;entryX=0.167;entryY=1.000;entryDx=0;entryDy=0;labelBackgroundColor=none;fontColor=default;" parent="1" source="node5" target="node32" edge="1">
          <mxGeometry width="50" height="50" relative="1" as="geometry">
            <Array as="points">
              <mxPoint x="-1866" y="2073" />
              <mxPoint x="-1836" y="2073" />
              <mxPoint x="-1836" y="1252" />
              <mxPoint x="-732" y="1252" />
            </Array>
          </mxGeometry>
        </mxCell>
        <mxCell id="label296" value="«create»" style="edgeLabel;resizable=0;html=1;align=left;verticalAlign=top;strokeColor=#E07A5F;labelBackgroundColor=none;fontColor=#393C56;" parent="edge49" vertex="1" connectable="0">
          <mxGeometry x="-1886" y="1653" as="geometry" />
        </mxCell>
        <mxCell id="edge19" value="" style="html=1;rounded=1;edgeStyle=orthogonalEdgeStyle;dashed=1;startArrow=none;endArrow=openThin;endSize=12;strokeColor=#E07A5F;exitX=0.167;exitY=0.000;exitDx=0;exitDy=0;entryX=0.250;entryY=1.000;entryDx=0;entryDy=0;labelBackgroundColor=none;fontColor=default;" parent="1" source="node5" target="node15" edge="1">
          <mxGeometry width="50" height="50" relative="1" as="geometry">
            <Array as="points">
              <mxPoint x="-1951" y="2073" />
              <mxPoint x="-2007" y="2073" />
              <mxPoint x="-2007" y="640" />
              <mxPoint x="-1736" y="640" />
            </Array>
          </mxGeometry>
        </mxCell>
        <mxCell id="edge37" value="" style="html=1;rounded=1;edgeStyle=orthogonalEdgeStyle;dashed=0;startArrow=diamondThinstartSize=12;endArrow=openThin;endSize=12;strokeColor=#E07A5F;exitX=0.500;exitY=0.000;exitDx=0;exitDy=0;entryX=0.750;entryY=1.000;entryDx=0;entryDy=0;labelBackgroundColor=none;fontColor=default;" parent="1" source="node34" target="node24" edge="1">
          <mxGeometry width="50" height="50" relative="1" as="geometry">
            <Array as="points">
              <mxPoint x="-874" y="2073" />
              <mxPoint x="-374" y="2073" />
              <mxPoint x="-374" y="2013" />
              <mxPoint x="-419" y="2013" />
            </Array>
          </mxGeometry>
        </mxCell>
        <mxCell id="label222" value="1" style="edgeLabel;resizable=0;html=1;align=left;verticalAlign=top;strokeColor=#E07A5F;labelBackgroundColor=none;fontColor=#393C56;" parent="edge37" vertex="1" connectable="0">
          <mxGeometry x="-885" y="2266" as="geometry" />
        </mxCell>
        <mxCell id="label226" value="*" style="edgeLabel;resizable=0;html=1;align=left;verticalAlign=top;strokeColor=#E07A5F;labelBackgroundColor=none;fontColor=#393C56;" parent="edge37" vertex="1" connectable="0">
          <mxGeometry x="-401" y="1993" as="geometry" />
        </mxCell>
        <mxCell id="label227" value="aircrafts" style="edgeLabel;resizable=0;html=1;align=left;verticalAlign=top;strokeColor=#E07A5F;labelBackgroundColor=none;fontColor=#393C56;" parent="edge37" vertex="1" connectable="0">
          <mxGeometry x="-419" y="1971" as="geometry" />
        </mxCell>
        <mxCell id="edge45" value="" style="html=1;rounded=1;edgeStyle=orthogonalEdgeStyle;dashed=0;startArrow=diamondThinstartSize=12;endArrow=openThin;endSize=12;strokeColor=#E07A5F;exitX=0.500;exitY=0.000;exitDx=0;exitDy=0;entryX=0.500;entryY=1.000;entryDx=0;entryDy=0;labelBackgroundColor=none;fontColor=default;" parent="1" source="node34" target="node36" edge="1">
          <mxGeometry width="50" height="50" relative="1" as="geometry">
            <Array as="points">
              <mxPoint x="-874" y="2063" />
              <mxPoint x="-1847" y="2063" />
            </Array>
          </mxGeometry>
        </mxCell>
        <mxCell id="label270" value="1" style="edgeLabel;resizable=0;html=1;align=left;verticalAlign=top;strokeColor=#E07A5F;labelBackgroundColor=none;fontColor=#393C56;" parent="edge45" vertex="1" connectable="0">
          <mxGeometry x="-885" y="2235" as="geometry" />
        </mxCell>
        <mxCell id="label274" value="1" style="edgeLabel;resizable=0;html=1;align=left;verticalAlign=top;strokeColor=#E07A5F;labelBackgroundColor=none;fontColor=#393C56;" parent="edge45" vertex="1" connectable="0">
          <mxGeometry x="-1858" y="1159" as="geometry" />
        </mxCell>
        <mxCell id="label275" value="priceList" style="edgeLabel;resizable=0;html=1;align=left;verticalAlign=top;strokeColor=#E07A5F;labelBackgroundColor=none;fontColor=#393C56;" parent="edge45" vertex="1" connectable="0">
          <mxGeometry x="-1847" y="1159" as="geometry" />
        </mxCell>
        <mxCell id="edge22" value="" style="html=1;rounded=1;edgeStyle=orthogonalEdgeStyle;dashed=0;startArrow=diamondThinstartSize=12;endArrow=openThin;endSize=12;strokeColor=#E07A5F;exitX=0.500;exitY=0.000;exitDx=0;exitDy=0;entryX=0.500;entryY=1.000;entryDx=0;entryDy=0;labelBackgroundColor=none;fontColor=default;" parent="1" source="node22" target="node4" edge="1">
          <mxGeometry width="50" height="50" relative="1" as="geometry">
            <Array as="points">
              <mxPoint x="3111" y="650" />
              <mxPoint x="2528" y="650" />
            </Array>
          </mxGeometry>
        </mxCell>
        <mxCell id="label132" value="1" style="edgeLabel;resizable=0;html=1;align=left;verticalAlign=top;strokeColor=#E07A5F;labelBackgroundColor=none;fontColor=#393C56;" parent="edge22" vertex="1" connectable="0">
          <mxGeometry x="2989" y="630" as="geometry" />
        </mxCell>
        <mxCell id="label136" value="1" style="edgeLabel;resizable=0;html=1;align=left;verticalAlign=top;strokeColor=#E07A5F;labelBackgroundColor=none;fontColor=#393C56;" parent="edge22" vertex="1" connectable="0">
          <mxGeometry x="2639" y="630" as="geometry" />
        </mxCell>
        <mxCell id="label137" value="address" style="edgeLabel;resizable=0;html=1;align=left;verticalAlign=top;strokeColor=#E07A5F;labelBackgroundColor=none;fontColor=#393C56;" parent="edge22" vertex="1" connectable="0">
          <mxGeometry x="2561" y="650" as="geometry" />
        </mxCell>
        <mxCell id="edge65" value="" style="html=1;rounded=1;edgeStyle=orthogonalEdgeStyle;dashed=0;startArrow=none;endArrow=block;endSize=12;strokeColor=#E07A5F;exitX=0.125;exitY=0.000;exitDx=0;exitDy=0;entryX=0.750;entryY=1.000;entryDx=0;entryDy=0;labelBackgroundColor=none;fontColor=default;" parent="1" source="node41" target="node7" edge="1">
          <mxGeometry width="50" height="50" relative="1" as="geometry">
            <Array as="points">
              <mxPoint x="-956" y="4542" />
              <mxPoint x="-1505" y="4542" />
              <mxPoint x="-1505" y="3823" />
              <mxPoint x="-1491" y="3823" />
              <mxPoint x="-1491" y="3813" />
              <mxPoint x="-1452" y="3813" />
            </Array>
          </mxGeometry>
        </mxCell>
        <mxCell id="edge77" value="" style="html=1;rounded=1;edgeStyle=orthogonalEdgeStyle;dashed=1;startArrow=none;endArrow=openThin;endSize=12;strokeColor=#E07A5F;exitX=0.875;exitY=0.000;exitDx=0;exitDy=0;entryX=0.750;entryY=1.000;entryDx=0;entryDy=0;labelBackgroundColor=none;fontColor=default;" parent="1" source="node41" target="node37" edge="1">
          <mxGeometry width="50" height="50" relative="1" as="geometry">
            <Array as="points">
              <mxPoint x="-647" y="4542" />
              <mxPoint x="-108" y="4542" />
              <mxPoint x="-108" y="4482" />
              <mxPoint x="1677" y="4482" />
              <mxPoint x="1677" y="2073" />
              <mxPoint x="1804" y="2073" />
            </Array>
          </mxGeometry>
        </mxCell>
        <mxCell id="edge83" value="" style="html=1;rounded=1;edgeStyle=orthogonalEdgeStyle;dashed=1;startArrow=none;endArrow=openThin;endSize=12;strokeColor=#E07A5F;exitX=0.875;exitY=0.000;exitDx=0;exitDy=0;entryX=0.750;entryY=1.000;entryDx=0;entryDy=0;labelBackgroundColor=none;fontColor=default;" parent="1" source="node41" target="node26" edge="1">
          <mxGeometry width="50" height="50" relative="1" as="geometry">
            <Array as="points">
              <mxPoint x="-647" y="4542" />
              <mxPoint x="-108" y="4542" />
              <mxPoint x="-108" y="4482" />
              <mxPoint x="262" y="4482" />
              <mxPoint x="262" y="3134" />
              <mxPoint x="518" y="3134" />
              <mxPoint x="518" y="3104" />
              <mxPoint x="581" y="3104" />
            </Array>
          </mxGeometry>
        </mxCell>
        <mxCell id="edge72" value="" style="html=1;rounded=1;edgeStyle=orthogonalEdgeStyle;dashed=1;startArrow=none;endArrow=openThin;endSize=12;strokeColor=#E07A5F;exitX=0.625;exitY=0.000;exitDx=0;exitDy=0;entryX=0.167;entryY=1.000;entryDx=0;entryDy=0;labelBackgroundColor=none;fontColor=default;" parent="1" source="node41" target="node17" edge="1">
          <mxGeometry width="50" height="50" relative="1" as="geometry">
            <Array as="points">
              <mxPoint x="-750" y="4532" />
              <mxPoint x="-387" y="4532" />
              <mxPoint x="-387" y="3813" />
              <mxPoint x="-176" y="3813" />
            </Array>
          </mxGeometry>
        </mxCell>
        <mxCell id="label434" value="«create»" style="edgeLabel;resizable=0;html=1;align=left;verticalAlign=top;strokeColor=#E07A5F;labelBackgroundColor=none;fontColor=#393C56;" parent="edge72" vertex="1" connectable="0">
          <mxGeometry x="-437" y="4163" as="geometry" />
        </mxCell>
        <mxCell id="edge79" value="" style="html=1;rounded=1;edgeStyle=orthogonalEdgeStyle;dashed=1;startArrow=none;endArrow=openThin;endSize=12;strokeColor=#E07A5F;exitX=0.875;exitY=0.000;exitDx=0;exitDy=0;entryX=0.250;entryY=1.000;entryDx=0;entryDy=0;labelBackgroundColor=none;fontColor=default;" parent="1" source="node41" target="node19" edge="1">
          <mxGeometry width="50" height="50" relative="1" as="geometry">
            <Array as="points">
              <mxPoint x="-647" y="4542" />
              <mxPoint x="-108" y="4542" />
              <mxPoint x="-108" y="4532" />
              <mxPoint x="150" y="4532" />
              <mxPoint x="150" y="4462" />
              <mxPoint x="433" y="4462" />
            </Array>
          </mxGeometry>
        </mxCell>
        <mxCell id="edge84" value="" style="html=1;rounded=1;edgeStyle=orthogonalEdgeStyle;dashed=1;startArrow=none;endArrow=openThin;endSize=12;strokeColor=#E07A5F;exitX=0.875;exitY=0.000;exitDx=0;exitDy=0;entryX=0.750;entryY=1.000;entryDx=0;entryDy=0;labelBackgroundColor=none;fontColor=default;" parent="1" source="node41" target="node25" edge="1">
          <mxGeometry width="50" height="50" relative="1" as="geometry">
            <Array as="points">
              <mxPoint x="-647" y="4542" />
              <mxPoint x="-108" y="4542" />
              <mxPoint x="-108" y="4482" />
              <mxPoint x="201" y="4482" />
              <mxPoint x="201" y="3114" />
              <mxPoint x="60" y="3114" />
            </Array>
          </mxGeometry>
        </mxCell>
        <mxCell id="edge81" value="" style="html=1;rounded=1;edgeStyle=orthogonalEdgeStyle;dashed=1;startArrow=none;endArrow=openThin;endSize=12;strokeColor=#E07A5F;exitX=0.875;exitY=0.000;exitDx=0;exitDy=0;entryX=0.250;entryY=1.000;entryDx=0;entryDy=0;labelBackgroundColor=none;fontColor=default;" parent="1" source="node41" target="node29" edge="1">
          <mxGeometry width="50" height="50" relative="1" as="geometry">
            <Array as="points">
              <mxPoint x="-647" y="4542" />
              <mxPoint x="-108" y="4542" />
              <mxPoint x="-108" y="4482" />
              <mxPoint x="-533" y="4482" />
              <mxPoint x="-533" y="3134" />
              <mxPoint x="-593" y="3134" />
            </Array>
          </mxGeometry>
        </mxCell>
        <mxCell id="edge73" value="" style="html=1;rounded=1;edgeStyle=orthogonalEdgeStyle;dashed=0;startArrow=diamondThinstartSize=12;endArrow=openThin;endSize=12;strokeColor=#E07A5F;exitX=0.375;exitY=0.000;exitDx=0;exitDy=0;entryX=0.500;entryY=1.000;entryDx=0;entryDy=0;labelBackgroundColor=none;fontColor=default;" parent="1" source="node41" target="node40" edge="1">
          <mxGeometry width="50" height="50" relative="1" as="geometry">
            <Array as="points">
              <mxPoint x="-853" y="4522" />
              <mxPoint x="-749" y="4522" />
            </Array>
          </mxGeometry>
        </mxCell>
        <mxCell id="label438" value="1" style="edgeLabel;resizable=0;html=1;align=left;verticalAlign=top;strokeColor=#E07A5F;labelBackgroundColor=none;fontColor=#393C56;" parent="edge73" vertex="1" connectable="0">
          <mxGeometry x="-864" y="4533" as="geometry" />
        </mxCell>
        <mxCell id="label442" value="1" style="edgeLabel;resizable=0;html=1;align=left;verticalAlign=top;strokeColor=#E07A5F;labelBackgroundColor=none;fontColor=#393C56;" parent="edge73" vertex="1" connectable="0">
          <mxGeometry x="-760" y="4207" as="geometry" />
        </mxCell>
        <mxCell id="label443" value="settingSeatMapProcess" style="edgeLabel;resizable=0;html=1;align=left;verticalAlign=top;strokeColor=#E07A5F;labelBackgroundColor=none;fontColor=#393C56;" parent="edge73" vertex="1" connectable="0">
          <mxGeometry x="-749" y="4207" as="geometry" />
        </mxCell>
        <mxCell id="edge7" value="" style="html=1;rounded=1;edgeStyle=orthogonalEdgeStyle;dashed=0;startArrow=none;endArrow=block;endSize=12;strokeColor=#E07A5F;exitX=0.500;exitY=0.000;exitDx=0;exitDy=0;entryX=0.167;entryY=1.000;entryDx=0;entryDy=0;labelBackgroundColor=none;fontColor=default;" parent="1" source="node38" target="node35" edge="1">
          <mxGeometry width="50" height="50" relative="1" as="geometry">
            <Array as="points">
              <mxPoint x="699" y="1262" />
              <mxPoint x="772" y="1262" />
              <mxPoint x="772" y="1232" />
              <mxPoint x="1781" y="1232" />
            </Array>
          </mxGeometry>
        </mxCell>
        <mxCell id="edge3" value="" style="html=1;rounded=1;edgeStyle=orthogonalEdgeStyle;dashed=0;startArrow=none;endArrow=block;endSize=12;strokeColor=#E07A5F;exitX=0.500;exitY=0.000;exitDx=0;exitDy=0;entryX=0.167;entryY=1.000;entryDx=0;entryDy=0;labelBackgroundColor=none;fontColor=default;" parent="1" source="node33" target="node35" edge="1">
          <mxGeometry width="50" height="50" relative="1" as="geometry">
            <Array as="points">
              <mxPoint x="964" y="1262" />
              <mxPoint x="772" y="1262" />
              <mxPoint x="772" y="1232" />
              <mxPoint x="1781" y="1232" />
            </Array>
          </mxGeometry>
        </mxCell>
        <mxCell id="edge4" value="" style="html=1;rounded=1;edgeStyle=orthogonalEdgeStyle;dashed=1;startArrow=none;endArrow=block;endSize=12;strokeColor=#E07A5F;exitX=0.750;exitY=0.000;exitDx=0;exitDy=0;entryX=0.250;entryY=1.001;entryDx=0;entryDy=0;labelBackgroundColor=none;fontColor=default;" parent="1" source="node28" target="node14" edge="1">
          <mxGeometry width="50" height="50" relative="1" as="geometry">
            <Array as="points">
              <mxPoint x="2397" y="3134" />
              <mxPoint x="2483" y="3134" />
            </Array>
          </mxGeometry>
        </mxCell>
        <mxCell id="edge32" value="" style="html=1;rounded=1;edgeStyle=orthogonalEdgeStyle;dashed=1;startArrow=none;endArrow=openThin;endSize=12;strokeColor=#E07A5F;exitX=0.250;exitY=0.000;exitDx=0;exitDy=0;entryX=0.750;entryY=1.000;entryDx=0;entryDy=0;labelBackgroundColor=none;fontColor=default;" parent="1" source="node28" target="node13" edge="1">
          <mxGeometry width="50" height="50" relative="1" as="geometry">
            <Array as="points">
              <mxPoint x="2238" y="3134" />
              <mxPoint x="2288" y="3134" />
              <mxPoint x="2288" y="2073" />
              <mxPoint x="2179" y="2073" />
              <mxPoint x="2179" y="2053" />
              <mxPoint x="2235" y="2053" />
            </Array>
          </mxGeometry>
        </mxCell>
        <mxCell id="edge24" value="" style="html=1;rounded=1;edgeStyle=orthogonalEdgeStyle;dashed=1;startArrow=none;endArrow=openThin;endSize=12;strokeColor=#E07A5F;exitX=0.250;exitY=0.000;exitDx=0;exitDy=0;entryX=0.833;entryY=1.000;entryDx=0;entryDy=0;labelBackgroundColor=none;fontColor=default;" parent="1" source="node28" target="node35" edge="1">
          <mxGeometry width="50" height="50" relative="1" as="geometry">
            <Array as="points">
              <mxPoint x="2238" y="3134" />
              <mxPoint x="2288" y="3134" />
              <mxPoint x="2288" y="3124" />
              <mxPoint x="2037" y="3124" />
              <mxPoint x="2037" y="1262" />
              <mxPoint x="2562" y="1262" />
              <mxPoint x="2562" y="1242" />
              <mxPoint x="1938" y="1242" />
            </Array>
          </mxGeometry>
        </mxCell>
        <mxCell id="edge61" value="" style="html=1;rounded=1;edgeStyle=orthogonalEdgeStyle;dashed=0;startArrow=diamondThinstartSize=12;endArrow=openThin;endSize=12;strokeColor=#E07A5F;exitX=0.500;exitY=0.000;exitDx=0;exitDy=0;entryX=0.250;entryY=1.000;entryDx=0;entryDy=0;labelBackgroundColor=none;fontColor=default;" parent="1" source="node37" target="node22" edge="1">
          <mxGeometry width="50" height="50" relative="1" as="geometry">
            <Array as="points">
              <mxPoint x="1728" y="1252" />
              <mxPoint x="3105" y="1252" />
              <mxPoint x="3105" y="1242" />
              <mxPoint x="3049" y="1242" />
            </Array>
          </mxGeometry>
        </mxCell>
        <mxCell id="label366" value="1" style="edgeLabel;resizable=0;html=1;align=left;verticalAlign=top;strokeColor=#E07A5F;labelBackgroundColor=none;fontColor=#393C56;" parent="edge61" vertex="1" connectable="0">
          <mxGeometry x="1717" y="1258" as="geometry" />
        </mxCell>
        <mxCell id="label370" value="1" style="edgeLabel;resizable=0;html=1;align=left;verticalAlign=top;strokeColor=#E07A5F;labelBackgroundColor=none;fontColor=#393C56;" parent="edge61" vertex="1" connectable="0">
          <mxGeometry x="2998" y="1232" as="geometry" />
        </mxCell>
        <mxCell id="label371" value="departure" style="edgeLabel;resizable=0;html=1;align=left;verticalAlign=top;strokeColor=#E07A5F;labelBackgroundColor=none;fontColor=#393C56;" parent="edge61" vertex="1" connectable="0">
          <mxGeometry x="3105" y="1232" as="geometry" />
        </mxCell>
        <mxCell id="edge57" value="" style="html=1;rounded=1;edgeStyle=orthogonalEdgeStyle;dashed=0;startArrow=diamondThinstartSize=12;endArrow=openThin;endSize=12;strokeColor=#E07A5F;exitX=0.250;exitY=1.000;exitDx=0;exitDy=0;entryX=0.750;entryY=0.000;entryDx=0;entryDy=0;labelBackgroundColor=none;fontColor=default;" parent="1" source="node37" target="node26" edge="1">
          <mxGeometry width="50" height="50" relative="1" as="geometry">
            <Array as="points">
              <mxPoint x="1652" y="2013" />
              <mxPoint x="581" y="2013" />
            </Array>
          </mxGeometry>
        </mxCell>
        <mxCell id="label342" value="1" style="edgeLabel;resizable=0;html=1;align=left;verticalAlign=top;strokeColor=#E07A5F;labelBackgroundColor=none;fontColor=#393C56;" parent="edge57" vertex="1" connectable="0">
          <mxGeometry x="1601" y="1992" as="geometry" />
        </mxCell>
        <mxCell id="label346" value="*" style="edgeLabel;resizable=0;html=1;align=left;verticalAlign=top;strokeColor=#E07A5F;labelBackgroundColor=none;fontColor=#393C56;" parent="edge57" vertex="1" connectable="0">
          <mxGeometry x="572" y="2024" as="geometry" />
        </mxCell>
        <mxCell id="label347" value="instances" style="edgeLabel;resizable=0;html=1;align=left;verticalAlign=top;strokeColor=#E07A5F;labelBackgroundColor=none;fontColor=#393C56;" parent="edge57" vertex="1" connectable="0">
          <mxGeometry x="659" y="2013" as="geometry" />
        </mxCell>
        <mxCell id="edge56" value="" style="html=1;rounded=1;edgeStyle=orthogonalEdgeStyle;dashed=0;startArrow=diamondThinstartSize=12;endArrow=openThin;endSize=12;strokeColor=#E07A5F;exitX=0.500;exitY=0.000;exitDx=0;exitDy=0;entryX=0.750;entryY=1.000;entryDx=0;entryDy=0;labelBackgroundColor=none;fontColor=default;" parent="1" source="node37" target="node31" edge="1">
          <mxGeometry width="50" height="50" relative="1" as="geometry">
            <Array as="points">
              <mxPoint x="1728" y="1242" />
              <mxPoint x="938" y="1242" />
            </Array>
          </mxGeometry>
        </mxCell>
        <mxCell id="label336" value="1" style="edgeLabel;resizable=0;html=1;align=left;verticalAlign=top;strokeColor=#E07A5F;labelBackgroundColor=none;fontColor=#393C56;" parent="edge56" vertex="1" connectable="0">
          <mxGeometry x="1643" y="1222" as="geometry" />
        </mxCell>
        <mxCell id="label340" value="1" style="edgeLabel;resizable=0;html=1;align=left;verticalAlign=top;strokeColor=#E07A5F;labelBackgroundColor=none;fontColor=#393C56;" parent="edge56" vertex="1" connectable="0">
          <mxGeometry x="927" y="1173" as="geometry" />
        </mxCell>
        <mxCell id="label341" value="schedule" style="edgeLabel;resizable=0;html=1;align=left;verticalAlign=top;strokeColor=#E07A5F;labelBackgroundColor=none;fontColor=#393C56;" parent="edge56" vertex="1" connectable="0">
          <mxGeometry x="938" y="1173" as="geometry" />
        </mxCell>
        <mxCell id="edge21" value="" style="html=1;rounded=1;edgeStyle=orthogonalEdgeStyle;dashed=0;startArrow=diamondThinstartSize=12;endArrow=openThin;endSize=12;strokeColor=#E07A5F;exitX=0.750;exitY=0.000;exitDx=0;exitDy=0;entryX=0.750;entryY=1.000;entryDx=0;entryDy=0;labelBackgroundColor=none;fontColor=default;" parent="1" source="node26" target="node24" edge="1">
          <mxGeometry width="50" height="50" relative="1" as="geometry">
            <Array as="points">
              <mxPoint x="581" y="2023" />
              <mxPoint x="-374" y="2023" />
              <mxPoint x="-374" y="2013" />
              <mxPoint x="-419" y="2013" />
            </Array>
          </mxGeometry>
        </mxCell>
        <mxCell id="label126" value="1" style="edgeLabel;resizable=0;html=1;align=left;verticalAlign=top;strokeColor=#E07A5F;labelBackgroundColor=none;fontColor=#393C56;" parent="edge21" vertex="1" connectable="0">
          <mxGeometry x="417" y="2003" as="geometry" />
        </mxCell>
        <mxCell id="label130" value="1" style="edgeLabel;resizable=0;html=1;align=left;verticalAlign=top;strokeColor=#E07A5F;labelBackgroundColor=none;fontColor=#393C56;" parent="edge21" vertex="1" connectable="0">
          <mxGeometry x="-430" y="1954" as="geometry" />
        </mxCell>
        <mxCell id="label131" value="aircraft" style="edgeLabel;resizable=0;html=1;align=left;verticalAlign=top;strokeColor=#E07A5F;labelBackgroundColor=none;fontColor=#393C56;" parent="edge21" vertex="1" connectable="0">
          <mxGeometry x="-374" y="2003" as="geometry" />
        </mxCell>
        <mxCell id="edge28" value="" style="html=1;rounded=1;edgeStyle=orthogonalEdgeStyle;dashed=0;startArrow=diamondThinstartSize=12;endArrow=openThin;endSize=12;strokeColor=#E07A5F;exitX=0.750;exitY=0.000;exitDx=0;exitDy=0;entryX=0.500;entryY=1.000;entryDx=0;entryDy=0;labelBackgroundColor=none;fontColor=default;" parent="1" source="node26" target="node38" edge="1">
          <mxGeometry width="50" height="50" relative="1" as="geometry">
            <Array as="points">
              <mxPoint x="581" y="2013" />
              <mxPoint x="699" y="2013" />
            </Array>
          </mxGeometry>
        </mxCell>
        <mxCell id="label168" value="1" style="edgeLabel;resizable=0;html=1;align=left;verticalAlign=top;strokeColor=#E07A5F;labelBackgroundColor=none;fontColor=#393C56;" parent="edge28" vertex="1" connectable="0">
          <mxGeometry x="570" y="2044" as="geometry" />
        </mxCell>
        <mxCell id="label172" value="*" style="edgeLabel;resizable=0;html=1;align=left;verticalAlign=top;strokeColor=#E07A5F;labelBackgroundColor=none;fontColor=#393C56;" parent="edge28" vertex="1" connectable="0">
          <mxGeometry x="690" y="1729" as="geometry" />
        </mxCell>
        <mxCell id="label173" value="crew" style="edgeLabel;resizable=0;html=1;align=left;verticalAlign=top;strokeColor=#E07A5F;labelBackgroundColor=none;fontColor=#393C56;" parent="edge28" vertex="1" connectable="0">
          <mxGeometry x="699" y="1729" as="geometry" />
        </mxCell>
        <mxCell id="edge53" value="" style="html=1;rounded=1;edgeStyle=orthogonalEdgeStyle;dashed=0;startArrow=diamondThinstartSize=12;endArrow=openThin;endSize=12;strokeColor=#E07A5F;exitX=0.750;exitY=0.000;exitDx=0;exitDy=0;entryX=0.250;entryY=1.000;entryDx=0;entryDy=0;labelBackgroundColor=none;fontColor=default;" parent="1" source="node26" target="node37" edge="1">
          <mxGeometry width="50" height="50" relative="1" as="geometry">
            <Array as="points">
              <mxPoint x="581" y="2013" />
              <mxPoint x="1652" y="2013" />
            </Array>
          </mxGeometry>
        </mxCell>
        <mxCell id="label318" value="1" style="edgeLabel;resizable=0;html=1;align=left;verticalAlign=top;strokeColor=#E07A5F;labelBackgroundColor=none;fontColor=#393C56;" parent="edge53" vertex="1" connectable="0">
          <mxGeometry x="683" y="1993" as="geometry" />
        </mxCell>
        <mxCell id="label322" value="1" style="edgeLabel;resizable=0;html=1;align=left;verticalAlign=top;strokeColor=#E07A5F;labelBackgroundColor=none;fontColor=#393C56;" parent="edge53" vertex="1" connectable="0">
          <mxGeometry x="1539" y="1993" as="geometry" />
        </mxCell>
        <mxCell id="label323" value="flight" style="edgeLabel;resizable=0;html=1;align=left;verticalAlign=top;strokeColor=#E07A5F;labelBackgroundColor=none;fontColor=#393C56;" parent="edge53" vertex="1" connectable="0">
          <mxGeometry x="1530" y="2013" as="geometry" />
        </mxCell>
        <mxCell id="edge36" value="" style="html=1;rounded=1;edgeStyle=orthogonalEdgeStyle;dashed=0;startArrow=diamondThinstartSize=12;endArrow=openThin;endSize=12;strokeColor=#E07A5F;exitX=0.750;exitY=0.000;exitDx=0;exitDy=0;entryX=0.750;entryY=1.000;entryDx=0;entryDy=0;labelBackgroundColor=none;fontColor=default;" parent="1" source="node26" target="node23" edge="1">
          <mxGeometry width="50" height="50" relative="1" as="geometry">
            <Array as="points">
              <mxPoint x="581" y="2033" />
              <mxPoint x="-1151" y="2033" />
              <mxPoint x="-1151" y="2023" />
              <mxPoint x="-1096" y="2023" />
            </Array>
          </mxGeometry>
        </mxCell>
        <mxCell id="label216" value="1" style="edgeLabel;resizable=0;html=1;align=left;verticalAlign=top;strokeColor=#E07A5F;labelBackgroundColor=none;fontColor=#393C56;" parent="edge36" vertex="1" connectable="0">
          <mxGeometry x="287" y="2013" as="geometry" />
        </mxCell>
        <mxCell id="label220" value="*" style="edgeLabel;resizable=0;html=1;align=left;verticalAlign=top;strokeColor=#E07A5F;labelBackgroundColor=none;fontColor=#393C56;" parent="edge36" vertex="1" connectable="0">
          <mxGeometry x="-1105" y="1856" as="geometry" />
        </mxCell>
        <mxCell id="label221" value="flightSeats" style="edgeLabel;resizable=0;html=1;align=left;verticalAlign=top;strokeColor=#E07A5F;labelBackgroundColor=none;fontColor=#393C56;" parent="edge36" vertex="1" connectable="0">
          <mxGeometry x="-1096" y="1898" as="geometry" />
        </mxCell>
        <mxCell id="edge55" value="" style="html=1;rounded=1;edgeStyle=orthogonalEdgeStyle;dashed=0;startArrow=diamondThinstartSize=12;endArrow=openThin;endSize=12;strokeColor=#E07A5F;exitX=0.750;exitY=0.000;exitDx=0;exitDy=0;entryX=0.500;entryY=1.000;entryDx=0;entryDy=0;labelBackgroundColor=none;fontColor=default;" parent="1" source="node26" target="node27" edge="1">
          <mxGeometry width="50" height="50" relative="1" as="geometry">
            <Array as="points">
              <mxPoint x="581" y="2013" />
              <mxPoint x="463" y="2013" />
            </Array>
          </mxGeometry>
        </mxCell>
        <mxCell id="label330" value="1" style="edgeLabel;resizable=0;html=1;align=left;verticalAlign=top;strokeColor=#E07A5F;labelBackgroundColor=none;fontColor=#393C56;" parent="edge55" vertex="1" connectable="0">
          <mxGeometry x="570" y="2070" as="geometry" />
        </mxCell>
        <mxCell id="label334" value="1" style="edgeLabel;resizable=0;html=1;align=left;verticalAlign=top;strokeColor=#E07A5F;labelBackgroundColor=none;fontColor=#393C56;" parent="edge55" vertex="1" connectable="0">
          <mxGeometry x="452" y="1849" as="geometry" />
        </mxCell>
        <mxCell id="label335" value="status" style="edgeLabel;resizable=0;html=1;align=left;verticalAlign=top;strokeColor=#E07A5F;labelBackgroundColor=none;fontColor=#393C56;" parent="edge55" vertex="1" connectable="0">
          <mxGeometry x="463" y="1849" as="geometry" />
        </mxCell>
        <mxCell id="edge43" value="" style="html=1;rounded=1;edgeStyle=orthogonalEdgeStyle;dashed=0;startArrow=diamondThinstartSize=12;endArrow=openThin;endSize=12;strokeColor=#E07A5F;exitX=0.750;exitY=0.000;exitDx=0;exitDy=0;entryX=0.500;entryY=1.000;entryDx=0;entryDy=0;labelBackgroundColor=none;fontColor=default;" parent="1" source="node26" target="node21" edge="1">
          <mxGeometry width="50" height="50" relative="1" as="geometry">
            <Array as="points">
              <mxPoint x="581" y="2013" />
              <mxPoint x="1229" y="2013" />
            </Array>
          </mxGeometry>
        </mxCell>
        <mxCell id="label258" value="1" style="edgeLabel;resizable=0;html=1;align=left;verticalAlign=top;strokeColor=#E07A5F;labelBackgroundColor=none;fontColor=#393C56;" parent="edge43" vertex="1" connectable="0">
          <mxGeometry x="641" y="1993" as="geometry" />
        </mxCell>
        <mxCell id="label262" value="*" style="edgeLabel;resizable=0;html=1;align=left;verticalAlign=top;strokeColor=#E07A5F;labelBackgroundColor=none;fontColor=#393C56;" parent="edge43" vertex="1" connectable="0">
          <mxGeometry x="1220" y="1743" as="geometry" />
        </mxCell>
        <mxCell id="label263" value="pilots" style="edgeLabel;resizable=0;html=1;align=left;verticalAlign=top;strokeColor=#E07A5F;labelBackgroundColor=none;fontColor=#393C56;" parent="edge43" vertex="1" connectable="0">
          <mxGeometry x="1229" y="1743" as="geometry" />
        </mxCell>
        <mxCell id="edge30" value="" style="html=1;rounded=1;edgeStyle=orthogonalEdgeStyle;dashed=1;startArrow=none;endArrow=openThin;endSize=12;strokeColor=#E07A5F;exitX=0.250;exitY=0.000;exitDx=0;exitDy=0;entryX=0.250;entryY=1.000;entryDx=0;entryDy=0;labelBackgroundColor=none;fontColor=default;" parent="1" source="node26" target="node31" edge="1">
          <mxGeometry width="50" height="50" relative="1" as="geometry">
            <Array as="points">
              <mxPoint x="434" y="2063" />
              <mxPoint x="26" y="2063" />
              <mxPoint x="26" y="1252" />
              <mxPoint x="771" y="1252" />
            </Array>
          </mxGeometry>
        </mxCell>
        <mxCell id="edge44" value="" style="html=1;rounded=1;edgeStyle=orthogonalEdgeStyle;dashed=0;startArrow=diamondThinstartSize=12;endArrow=openThin;endSize=12;strokeColor=#E07A5F;exitX=0.500;exitY=0.000;exitDx=0;exitDy=0;entryX=0.250;entryY=1.000;entryDx=0;entryDy=0;labelBackgroundColor=none;fontColor=default;" parent="1" source="node17" target="node26" edge="1">
          <mxGeometry width="50" height="50" relative="1" as="geometry">
            <Array as="points">
              <mxPoint x="-45" y="3124" />
              <mxPoint x="434" y="3124" />
            </Array>
          </mxGeometry>
        </mxCell>
        <mxCell id="label264" value="1" style="edgeLabel;resizable=0;html=1;align=left;verticalAlign=top;strokeColor=#E07A5F;labelBackgroundColor=none;fontColor=#393C56;" parent="edge44" vertex="1" connectable="0">
          <mxGeometry x="-3" y="3104" as="geometry" />
        </mxCell>
        <mxCell id="label268" value="1" style="edgeLabel;resizable=0;html=1;align=left;verticalAlign=top;strokeColor=#E07A5F;labelBackgroundColor=none;fontColor=#393C56;" parent="edge44" vertex="1" connectable="0">
          <mxGeometry x="423" y="3093" as="geometry" />
        </mxCell>
        <mxCell id="label269" value="flight" style="edgeLabel;resizable=0;html=1;align=left;verticalAlign=top;strokeColor=#E07A5F;labelBackgroundColor=none;fontColor=#393C56;" parent="edge44" vertex="1" connectable="0">
          <mxGeometry x="434" y="3093" as="geometry" />
        </mxCell>
        <mxCell id="edge14" value="" style="html=1;rounded=1;edgeStyle=orthogonalEdgeStyle;dashed=0;startArrow=diamondThinstartSize=12;endArrow=openThin;endSize=12;strokeColor=#E07A5F;exitX=0.500;exitY=0.000;exitDx=0;exitDy=0;entryX=0.750;entryY=1.000;entryDx=0;entryDy=0;labelBackgroundColor=none;fontColor=default;" parent="1" source="node17" target="node23" edge="1">
          <mxGeometry width="50" height="50" relative="1" as="geometry">
            <Array as="points">
              <mxPoint x="-45" y="3124" />
              <mxPoint x="-723" y="3124" />
              <mxPoint x="-723" y="2043" />
              <mxPoint x="-1151" y="2043" />
              <mxPoint x="-1151" y="2023" />
              <mxPoint x="-1096" y="2023" />
            </Array>
          </mxGeometry>
        </mxCell>
        <mxCell id="label84" value="1" style="edgeLabel;resizable=0;html=1;align=left;verticalAlign=top;strokeColor=#E07A5F;labelBackgroundColor=none;fontColor=#393C56;" parent="edge14" vertex="1" connectable="0">
          <mxGeometry x="-220" y="3104" as="geometry" />
        </mxCell>
        <mxCell id="label88" value="*" style="edgeLabel;resizable=0;html=1;align=left;verticalAlign=top;strokeColor=#E07A5F;labelBackgroundColor=none;fontColor=#393C56;" parent="edge14" vertex="1" connectable="0">
          <mxGeometry x="-1105" y="1884" as="geometry" />
        </mxCell>
        <mxCell id="label89" value="seatMap" style="edgeLabel;resizable=0;html=1;align=left;verticalAlign=top;strokeColor=#E07A5F;labelBackgroundColor=none;fontColor=#393C56;" parent="edge14" vertex="1" connectable="0">
          <mxGeometry x="-1096" y="1856" as="geometry" />
        </mxCell>
        <mxCell id="edge54" value="" style="html=1;rounded=1;edgeStyle=orthogonalEdgeStyle;dashed=0;startArrow=diamondThinstartSize=12;endArrow=openThin;endSize=12;strokeColor=#E07A5F;exitX=0.500;exitY=0.000;exitDx=0;exitDy=0;entryX=0.250;entryY=1.000;entryDx=0;entryDy=0;labelBackgroundColor=none;fontColor=default;" parent="1" source="node17" target="node25" edge="1">
          <mxGeometry width="50" height="50" relative="1" as="geometry">
            <Array as="points" />
          </mxGeometry>
        </mxCell>
        <mxCell id="label324" value="1" style="edgeLabel;resizable=0;html=1;align=left;verticalAlign=top;strokeColor=#E07A5F;labelBackgroundColor=none;fontColor=#393C56;" parent="edge54" vertex="1" connectable="0">
          <mxGeometry x="-56" y="3131" as="geometry" />
        </mxCell>
        <mxCell id="label328" value="*" style="edgeLabel;resizable=0;html=1;align=left;verticalAlign=top;strokeColor=#E07A5F;labelBackgroundColor=none;fontColor=#393C56;" parent="edge54" vertex="1" connectable="0">
          <mxGeometry x="-54" y="2680" as="geometry" />
        </mxCell>
        <mxCell id="label329" value="seatMap" style="edgeLabel;resizable=0;html=1;align=left;verticalAlign=top;strokeColor=#E07A5F;labelBackgroundColor=none;fontColor=#393C56;" parent="edge54" vertex="1" connectable="0">
          <mxGeometry x="-45" y="2685" as="geometry" />
        </mxCell>
        <mxCell id="edge38" value="" style="html=1;rounded=1;edgeStyle=orthogonalEdgeStyle;dashed=0;startArrow=diamondThinstartSize=12;endArrow=openThin;endSize=12;strokeColor=#E07A5F;exitX=0.500;exitY=0.000;exitDx=0;exitDy=0;entryX=0.750;entryY=1.000;entryDx=0;entryDy=0;labelBackgroundColor=none;fontColor=default;" parent="1" source="node17" target="node29" edge="1">
          <mxGeometry width="50" height="50" relative="1" as="geometry">
            <Array as="points">
              <mxPoint x="-45" y="3124" />
              <mxPoint x="-464" y="3124" />
            </Array>
          </mxGeometry>
        </mxCell>
        <mxCell id="label228" value="1" style="edgeLabel;resizable=0;html=1;align=left;verticalAlign=top;strokeColor=#E07A5F;labelBackgroundColor=none;fontColor=#393C56;" parent="edge38" vertex="1" connectable="0">
          <mxGeometry x="-135" y="3104" as="geometry" />
        </mxCell>
        <mxCell id="label232" value="1" style="edgeLabel;resizable=0;html=1;align=left;verticalAlign=top;strokeColor=#E07A5F;labelBackgroundColor=none;fontColor=#393C56;" parent="edge38" vertex="1" connectable="0">
          <mxGeometry x="-475" y="2751" as="geometry" />
        </mxCell>
        <mxCell id="label233" value="status" style="edgeLabel;resizable=0;html=1;align=left;verticalAlign=top;strokeColor=#E07A5F;labelBackgroundColor=none;fontColor=#393C56;" parent="edge38" vertex="1" connectable="0">
          <mxGeometry x="-464" y="2751" as="geometry" />
        </mxCell>
        <mxCell id="edge25" value="" style="html=1;rounded=1;edgeStyle=orthogonalEdgeStyle;dashed=0;startArrow=diamondThinstartSize=12;endArrow=openThin;endSize=12;strokeColor=#E07A5F;exitX=0.500;exitY=0.000;exitDx=0;exitDy=0;entryX=0.750;entryY=1.000;entryDx=0;entryDy=0;labelBackgroundColor=none;fontColor=default;" parent="1" source="node23" target="node15" edge="1">
          <mxGeometry width="50" height="50" relative="1" as="geometry">
            <Array as="points">
              <mxPoint x="-1156" y="650" />
              <mxPoint x="-1061" y="650" />
              <mxPoint x="-1061" y="630" />
              <mxPoint x="-1636" y="630" />
            </Array>
          </mxGeometry>
        </mxCell>
        <mxCell id="label150" value="1" style="edgeLabel;resizable=0;html=1;align=left;verticalAlign=top;strokeColor=#E07A5F;labelBackgroundColor=none;fontColor=#393C56;" parent="edge25" vertex="1" connectable="0">
          <mxGeometry x="-1167" y="1399" as="geometry" />
        </mxCell>
        <mxCell id="label154" value="1" style="edgeLabel;resizable=0;html=1;align=left;verticalAlign=top;strokeColor=#E07A5F;labelBackgroundColor=none;fontColor=#393C56;" parent="edge25" vertex="1" connectable="0">
          <mxGeometry x="-1647" y="519" as="geometry" />
        </mxCell>
        <mxCell id="label155" value="sort" style="edgeLabel;resizable=0;html=1;align=left;verticalAlign=top;strokeColor=#E07A5F;labelBackgroundColor=none;fontColor=#393C56;" parent="edge25" vertex="1" connectable="0">
          <mxGeometry x="-1636" y="432" as="geometry" />
        </mxCell>
        <mxCell id="edge47" value="" style="html=1;rounded=1;edgeStyle=orthogonalEdgeStyle;dashed=0;startArrow=diamondThinstartSize=12;endArrow=openThin;endSize=12;strokeColor=#E07A5F;exitX=0.500;exitY=0.000;exitDx=0;exitDy=0;entryX=0.500;entryY=1.000;entryDx=0;entryDy=0;labelBackgroundColor=none;fontColor=default;" parent="1" source="node23" target="node20" edge="1">
          <mxGeometry width="50" height="50" relative="1" as="geometry">
            <Array as="points">
              <mxPoint x="-1156" y="1262" />
              <mxPoint x="-463" y="1262" />
              <mxPoint x="-463" y="630" />
              <mxPoint x="-658" y="630" />
            </Array>
          </mxGeometry>
        </mxCell>
        <mxCell id="label282" value="1" style="edgeLabel;resizable=0;html=1;align=left;verticalAlign=top;strokeColor=#E07A5F;labelBackgroundColor=none;fontColor=#393C56;" parent="edge47" vertex="1" connectable="0">
          <mxGeometry x="-1167" y="1360" as="geometry" />
        </mxCell>
        <mxCell id="label286" value="1" style="edgeLabel;resizable=0;html=1;align=left;verticalAlign=top;strokeColor=#E07A5F;labelBackgroundColor=none;fontColor=#393C56;" parent="edge47" vertex="1" connectable="0">
          <mxGeometry x="-669" y="439" as="geometry" />
        </mxCell>
        <mxCell id="label287" value="type" style="edgeLabel;resizable=0;html=1;align=left;verticalAlign=top;strokeColor=#E07A5F;labelBackgroundColor=none;fontColor=#393C56;" parent="edge47" vertex="1" connectable="0">
          <mxGeometry x="-658" y="439" as="geometry" />
        </mxCell>
        <mxCell id="edge60" value="" style="html=1;rounded=1;edgeStyle=orthogonalEdgeStyle;dashed=1;startArrow=none;endArrow=openThin;endSize=12;strokeColor=#E07A5F;exitX=0.500;exitY=0.000;exitDx=0;exitDy=0;entryX=0.750;entryY=1.000;entryDx=0;entryDy=0;labelBackgroundColor=none;fontColor=default;" parent="1" source="node9" target="node22" edge="1">
          <mxGeometry width="50" height="50" relative="1" as="geometry">
            <Array as="points">
              <mxPoint x="2730" y="3134" />
              <mxPoint x="3116" y="3134" />
              <mxPoint x="3116" y="1262" />
              <mxPoint x="3173" y="1262" />
            </Array>
          </mxGeometry>
        </mxCell>
        <mxCell id="edge51" value="" style="html=1;rounded=1;edgeStyle=orthogonalEdgeStyle;dashed=1;startArrow=none;endArrow=openThin;endSize=12;strokeColor=#E07A5F;exitX=0.500;exitY=0.000;exitDx=0;exitDy=0;entryX=0.750;entryY=1.000;entryDx=0;entryDy=0;labelBackgroundColor=none;fontColor=default;" parent="1" source="node9" target="node26" edge="1">
          <mxGeometry width="50" height="50" relative="1" as="geometry">
            <Array as="points">
              <mxPoint x="2730" y="3114" />
              <mxPoint x="518" y="3114" />
              <mxPoint x="518" y="3104" />
              <mxPoint x="581" y="3104" />
            </Array>
          </mxGeometry>
        </mxCell>
        <mxCell id="edge12" value="" style="html=1;rounded=1;edgeStyle=orthogonalEdgeStyle;dashed=1;startArrow=none;endArrow=openThin;endSize=12;strokeColor=#E07A5F;exitX=0.625;exitY=0.000;exitDx=0;exitDy=0;entryX=0.750;entryY=1.000;entryDx=0;entryDy=0;labelBackgroundColor=none;fontColor=default;" parent="1" source="node12" target="node22" edge="1">
          <mxGeometry width="50" height="50" relative="1" as="geometry">
            <Array as="points">
              <mxPoint x="1581" y="5009" />
              <mxPoint x="1733" y="5009" />
              <mxPoint x="1733" y="4989" />
              <mxPoint x="3116" y="4989" />
              <mxPoint x="3116" y="1262" />
              <mxPoint x="3173" y="1262" />
            </Array>
          </mxGeometry>
        </mxCell>
        <mxCell id="edge18" value="" style="html=1;rounded=1;edgeStyle=orthogonalEdgeStyle;dashed=1;startArrow=none;endArrow=openThin;endSize=12;strokeColor=#E07A5F;exitX=0.625;exitY=0.000;exitDx=0;exitDy=0;entryX=0.750;entryY=1.000;entryDx=0;entryDy=0;labelBackgroundColor=none;fontColor=default;" parent="1" source="node12" target="node37" edge="1">
          <mxGeometry width="50" height="50" relative="1" as="geometry">
            <Array as="points">
              <mxPoint x="1581" y="5009" />
              <mxPoint x="1733" y="5009" />
              <mxPoint x="1733" y="4989" />
              <mxPoint x="1677" y="4989" />
              <mxPoint x="1677" y="2073" />
              <mxPoint x="1804" y="2073" />
            </Array>
          </mxGeometry>
        </mxCell>
        <mxCell id="edge50" value="" style="html=1;rounded=1;edgeStyle=orthogonalEdgeStyle;dashed=1;startArrow=none;endArrow=openThin;endSize=12;strokeColor=#E07A5F;exitX=0.625;exitY=0.000;exitDx=0;exitDy=0;entryX=0.750;entryY=1.000;entryDx=0;entryDy=0;labelBackgroundColor=none;fontColor=default;" parent="1" source="node12" target="node26" edge="1">
          <mxGeometry width="50" height="50" relative="1" as="geometry">
            <Array as="points">
              <mxPoint x="1581" y="5009" />
              <mxPoint x="1733" y="5009" />
              <mxPoint x="1733" y="4989" />
              <mxPoint x="977" y="4989" />
              <mxPoint x="977" y="3134" />
              <mxPoint x="518" y="3134" />
              <mxPoint x="518" y="3104" />
              <mxPoint x="581" y="3104" />
            </Array>
          </mxGeometry>
        </mxCell>
        <mxCell id="edge1" value="" style="html=1;rounded=1;edgeStyle=orthogonalEdgeStyle;dashed=1;startArrow=none;endArrow=block;endSize=12;strokeColor=#E07A5F;exitX=0.875;exitY=0.000;exitDx=0;exitDy=0;entryX=0.500;entryY=1.000;entryDx=0;entryDy=0;labelBackgroundColor=none;fontColor=default;" parent="1" source="node12" target="node9" edge="1">
          <mxGeometry width="50" height="50" relative="1" as="geometry">
            <Array as="points">
              <mxPoint x="1698" y="4999" />
              <mxPoint x="2779" y="4999" />
              <mxPoint x="2779" y="3813" />
              <mxPoint x="2730" y="3813" />
            </Array>
          </mxGeometry>
        </mxCell>
        <mxCell id="edge41" value="" style="html=1;rounded=1;edgeStyle=orthogonalEdgeStyle;dashed=1;startArrow=none;endArrow=openThin;endSize=12;strokeColor=#E07A5F;exitX=0.375;exitY=0.000;exitDx=0;exitDy=0;entryX=0.750;entryY=1.000;entryDx=0;entryDy=0;labelBackgroundColor=none;fontColor=default;" parent="1" source="node12" target="node19" edge="1">
          <mxGeometry width="50" height="50" relative="1" as="geometry">
            <Array as="points">
              <mxPoint x="1465" y="4999" />
              <mxPoint x="923" y="4999" />
              <mxPoint x="923" y="4532" />
              <mxPoint x="603" y="4532" />
            </Array>
          </mxGeometry>
        </mxCell>
        <mxCell id="label248" value="«create»" style="edgeLabel;resizable=0;html=1;align=left;verticalAlign=top;strokeColor=#E07A5F;labelBackgroundColor=none;fontColor=#393C56;" parent="edge41" vertex="1" connectable="0">
          <mxGeometry x="873" y="4756" as="geometry" />
        </mxCell>
        <mxCell id="edge40" value="" style="html=1;rounded=1;edgeStyle=orthogonalEdgeStyle;dashed=0;startArrow=diamondThinstartSize=12;endArrow=openThin;endSize=12;strokeColor=#E07A5F;exitX=0.125;exitY=0.000;exitDx=0;exitDy=0;entryX=0.500;entryY=1.000;entryDx=0;entryDy=0;labelBackgroundColor=none;fontColor=default;" parent="1" source="node12" target="node18" edge="1">
          <mxGeometry width="50" height="50" relative="1" as="geometry">
            <Array as="points">
              <mxPoint x="1348" y="5009" />
              <mxPoint x="-137" y="5009" />
            </Array>
          </mxGeometry>
        </mxCell>
        <mxCell id="label240" value="1" style="edgeLabel;resizable=0;html=1;align=left;verticalAlign=top;strokeColor=#E07A5F;labelBackgroundColor=none;fontColor=#393C56;" parent="edge40" vertex="1" connectable="0">
          <mxGeometry x="1337" y="5010" as="geometry" />
        </mxCell>
        <mxCell id="label244" value="1" style="edgeLabel;resizable=0;html=1;align=left;verticalAlign=top;strokeColor=#E07A5F;labelBackgroundColor=none;fontColor=#393C56;" parent="edge40" vertex="1" connectable="0">
          <mxGeometry x="-148" y="4979" as="geometry" />
        </mxCell>
        <mxCell id="label245" value="reservationChainServiceImpl" style="edgeLabel;resizable=0;html=1;align=left;verticalAlign=top;strokeColor=#E07A5F;labelBackgroundColor=none;fontColor=#393C56;" parent="edge40" vertex="1" connectable="0">
          <mxGeometry x="-137" y="4979" as="geometry" />
        </mxCell>
        <mxCell id="edge8" value="" style="html=1;rounded=1;edgeStyle=orthogonalEdgeStyle;dashed=0;startArrow=none;endArrow=block;endSize=12;strokeColor=#E07A5F;exitX=0.500;exitY=0.000;exitDx=0;exitDy=0;entryX=0.167;entryY=1.000;entryDx=0;entryDy=0;labelBackgroundColor=none;fontColor=default;" parent="1" source="node30" target="node35" edge="1">
          <mxGeometry width="50" height="50" relative="1" as="geometry">
            <Array as="points">
              <mxPoint x="1455" y="1262" />
              <mxPoint x="772" y="1262" />
              <mxPoint x="772" y="1232" />
              <mxPoint x="1781" y="1232" />
            </Array>
          </mxGeometry>
        </mxCell>
        <mxCell id="edge16" value="" style="html=1;rounded=1;edgeStyle=orthogonalEdgeStyle;dashed=0;startArrow=diamondThinstartSize=12;endArrow=openThin;endSize=12;strokeColor=#E07A5F;exitX=0.250;exitY=0.000;exitDx=0;exitDy=0;entryX=0.250;entryY=1.000;entryDx=0;entryDy=0;labelBackgroundColor=none;fontColor=default;" parent="1" source="node19" target="node22" edge="1">
          <mxGeometry width="50" height="50" relative="1" as="geometry">
            <Array as="points">
              <mxPoint x="433" y="3823" />
              <mxPoint x="513" y="3823" />
              <mxPoint x="513" y="3783" />
              <mxPoint x="3105" y="3783" />
              <mxPoint x="3105" y="1242" />
              <mxPoint x="3049" y="1242" />
            </Array>
          </mxGeometry>
        </mxCell>
        <mxCell id="label96" value="1" style="edgeLabel;resizable=0;html=1;align=left;verticalAlign=top;strokeColor=#E07A5F;labelBackgroundColor=none;fontColor=#393C56;" parent="edge16" vertex="1" connectable="0">
          <mxGeometry x="448" y="3803" as="geometry" />
        </mxCell>
        <mxCell id="label100" value="1" style="edgeLabel;resizable=0;html=1;align=left;verticalAlign=top;strokeColor=#E07A5F;labelBackgroundColor=none;fontColor=#393C56;" parent="edge16" vertex="1" connectable="0">
          <mxGeometry x="3071" y="1222" as="geometry" />
        </mxCell>
        <mxCell id="label101" value="startingAirport" style="edgeLabel;resizable=0;html=1;align=left;verticalAlign=top;strokeColor=#E07A5F;labelBackgroundColor=none;fontColor=#393C56;" parent="edge16" vertex="1" connectable="0">
          <mxGeometry x="3009" y="1242" as="geometry" />
        </mxCell>
        <mxCell id="edge17" value="" style="html=1;rounded=1;edgeStyle=orthogonalEdgeStyle;dashed=0;startArrow=diamondThinstartSize=12;endArrow=openThin;endSize=12;strokeColor=#E07A5F;exitX=0.250;exitY=0.000;exitDx=0;exitDy=0;entryX=0.833;entryY=1.000;entryDx=0;entryDy=0;labelBackgroundColor=none;fontColor=default;" parent="1" source="node19" target="node17" edge="1">
          <mxGeometry width="50" height="50" relative="1" as="geometry">
            <Array as="points">
              <mxPoint x="433" y="3823" />
              <mxPoint x="513" y="3823" />
              <mxPoint x="513" y="3783" />
              <mxPoint x="85" y="3783" />
            </Array>
          </mxGeometry>
        </mxCell>
        <mxCell id="label102" value="1" style="edgeLabel;resizable=0;html=1;align=left;verticalAlign=top;strokeColor=#E07A5F;labelBackgroundColor=none;fontColor=#393C56;" parent="edge17" vertex="1" connectable="0">
          <mxGeometry x="365" y="3763" as="geometry" />
        </mxCell>
        <mxCell id="label106" value="*" style="edgeLabel;resizable=0;html=1;align=left;verticalAlign=top;strokeColor=#E07A5F;labelBackgroundColor=none;fontColor=#393C56;" parent="edge17" vertex="1" connectable="0">
          <mxGeometry x="76" y="3757" as="geometry" />
        </mxCell>
        <mxCell id="label107" value="reservations" style="edgeLabel;resizable=0;html=1;align=left;verticalAlign=top;strokeColor=#E07A5F;labelBackgroundColor=none;fontColor=#393C56;" parent="edge17" vertex="1" connectable="0">
          <mxGeometry x="85" y="3757" as="geometry" />
        </mxCell>
        <mxCell id="edge29" value="" style="html=1;rounded=1;edgeStyle=orthogonalEdgeStyle;dashed=1;startArrow=none;endArrow=openThin;endSize=12;strokeColor=#E07A5F;exitX=0.750;exitY=0.000;exitDx=0;exitDy=0;entryX=0.750;entryY=1.000;entryDx=0;entryDy=0;labelBackgroundColor=none;fontColor=default;" parent="1" source="node19" target="node25" edge="1">
          <mxGeometry width="50" height="50" relative="1" as="geometry">
            <Array as="points">
              <mxPoint x="603" y="3813" />
              <mxPoint x="234" y="3813" />
              <mxPoint x="234" y="3134" />
              <mxPoint x="201" y="3134" />
              <mxPoint x="201" y="3114" />
              <mxPoint x="60" y="3114" />
            </Array>
          </mxGeometry>
        </mxCell>
        <mxCell id="edge35" value="" style="html=1;rounded=1;edgeStyle=orthogonalEdgeStyle;dashed=0;startArrow=diamondThinstartSize=12;endArrow=openThin;endSize=12;strokeColor=#E07A5F;exitX=0.500;exitY=0.000;exitDx=0;exitDy=0;entryX=0.250;entryY=1.000;entryDx=0;entryDy=0;labelBackgroundColor=none;fontColor=default;" parent="1" source="node10" target="node13" edge="1">
          <mxGeometry width="50" height="50" relative="1" as="geometry">
            <Array as="points">
              <mxPoint x="1905" y="2063" />
              <mxPoint x="2110" y="2063" />
            </Array>
          </mxGeometry>
        </mxCell>
        <mxCell id="label210" value="1" style="edgeLabel;resizable=0;html=1;align=left;verticalAlign=top;strokeColor=#E07A5F;labelBackgroundColor=none;fontColor=#393C56;" parent="edge35" vertex="1" connectable="0">
          <mxGeometry x="1894" y="2269" as="geometry" />
        </mxCell>
        <mxCell id="label214" value="1" style="edgeLabel;resizable=0;html=1;align=left;verticalAlign=top;strokeColor=#E07A5F;labelBackgroundColor=none;fontColor=#393C56;" parent="edge35" vertex="1" connectable="0">
          <mxGeometry x="2099" y="1736" as="geometry" />
        </mxCell>
        <mxCell id="label215" value="type" style="edgeLabel;resizable=0;html=1;align=left;verticalAlign=top;strokeColor=#E07A5F;labelBackgroundColor=none;fontColor=#393C56;" parent="edge35" vertex="1" connectable="0">
          <mxGeometry x="2110" y="1716" as="geometry" />
        </mxCell>
        <mxCell id="edge31" value="" style="html=1;rounded=1;edgeStyle=orthogonalEdgeStyle;dashed=0;startArrow=diamondThinstartSize=12;endArrow=openThin;endSize=12;strokeColor=#E07A5F;exitX=0.500;exitY=0.000;exitDx=0;exitDy=0;entryX=0.500;entryY=1.000;entryDx=0;entryDy=0;labelBackgroundColor=none;fontColor=default;" parent="1" source="node10" target="node35" edge="1">
          <mxGeometry width="50" height="50" relative="1" as="geometry">
            <Array as="points">
              <mxPoint x="1905" y="1242" />
              <mxPoint x="1860" y="1242" />
            </Array>
          </mxGeometry>
        </mxCell>
        <mxCell id="label186" value="1" style="edgeLabel;resizable=0;html=1;align=left;verticalAlign=top;strokeColor=#E07A5F;labelBackgroundColor=none;fontColor=#393C56;" parent="edge31" vertex="1" connectable="0">
          <mxGeometry x="1894" y="2308" as="geometry" />
        </mxCell>
        <mxCell id="label190" value="1" style="edgeLabel;resizable=0;html=1;align=left;verticalAlign=top;strokeColor=#E07A5F;labelBackgroundColor=none;fontColor=#393C56;" parent="edge31" vertex="1" connectable="0">
          <mxGeometry x="1849" y="1216" as="geometry" />
        </mxCell>
        <mxCell id="label191" value="person" style="edgeLabel;resizable=0;html=1;align=left;verticalAlign=top;strokeColor=#E07A5F;labelBackgroundColor=none;fontColor=#393C56;" parent="edge31" vertex="1" connectable="0">
          <mxGeometry x="1860" y="1216" as="geometry" />
        </mxCell>
        <mxCell id="edge20" value="" style="html=1;rounded=1;edgeStyle=orthogonalEdgeStyle;dashed=1;startArrow=none;endArrow=openThin;endSize=12;strokeColor=#E07A5F;exitX=0.500;exitY=0.001;exitDx=0;exitDy=0;entryX=0.750;entryY=1.000;entryDx=0;entryDy=0;labelBackgroundColor=none;fontColor=default;" parent="1" source="node14" target="node13" edge="1">
          <mxGeometry width="50" height="50" relative="1" as="geometry">
            <Array as="points">
              <mxPoint x="2562" y="2063" />
              <mxPoint x="2179" y="2063" />
              <mxPoint x="2179" y="2053" />
              <mxPoint x="2235" y="2053" />
            </Array>
          </mxGeometry>
        </mxCell>
        <mxCell id="edge13" value="" style="html=1;rounded=1;edgeStyle=orthogonalEdgeStyle;dashed=1;startArrow=none;endArrow=openThin;endSize=12;strokeColor=#E07A5F;exitX=0.500;exitY=0.001;exitDx=0;exitDy=0;entryX=0.833;entryY=1.000;entryDx=0;entryDy=0;labelBackgroundColor=none;fontColor=default;" parent="1" source="node14" target="node35" edge="1">
          <mxGeometry width="50" height="50" relative="1" as="geometry">
            <Array as="points">
              <mxPoint x="2562" y="1242" />
              <mxPoint x="1938" y="1242" />
            </Array>
          </mxGeometry>
        </mxCell>
        <mxCell id="edge71" value="" style="html=1;rounded=1;edgeStyle=orthogonalEdgeStyle;dashed=0;startArrow=none;endArrow=block;endSize=12;strokeColor=#E07A5F;exitX=0.167;exitY=0.000;exitDx=0;exitDy=0;entryX=0.750;entryY=1.000;entryDx=0;entryDy=0;labelBackgroundColor=none;fontColor=default;" parent="1" source="node42" target="node7" edge="1">
          <mxGeometry width="50" height="50" relative="1" as="geometry">
            <Array as="points">
              <mxPoint x="422" y="4502" />
              <mxPoint x="-1481" y="4502" />
              <mxPoint x="-1481" y="3823" />
              <mxPoint x="-1491" y="3823" />
              <mxPoint x="-1491" y="3813" />
              <mxPoint x="-1452" y="3813" />
            </Array>
          </mxGeometry>
        </mxCell>
        <mxCell id="edge69" value="" style="html=1;rounded=1;edgeStyle=orthogonalEdgeStyle;dashed=1;startArrow=none;endArrow=openThin;endSize=12;strokeColor=#E07A5F;exitX=0.500;exitY=0.000;exitDx=0;exitDy=0;entryX=0.500;entryY=1.000;entryDx=0;entryDy=0;labelBackgroundColor=none;fontColor=default;" parent="1" source="node42" target="node17" edge="1">
          <mxGeometry width="50" height="50" relative="1" as="geometry">
            <Array as="points">
              <mxPoint x="555" y="4472" />
              <mxPoint x="-73" y="4472" />
              <mxPoint x="-73" y="3803" />
              <mxPoint x="-106" y="3803" />
              <mxPoint x="-106" y="3783" />
              <mxPoint x="-45" y="3783" />
            </Array>
          </mxGeometry>
        </mxCell>
        <mxCell id="edge64" value="" style="html=1;rounded=1;edgeStyle=orthogonalEdgeStyle;dashed=1;startArrow=none;endArrow=openThin;endSize=12;strokeColor=#E07A5F;exitX=0.500;exitY=0.000;exitDx=0;exitDy=0;entryX=0.250;entryY=1.000;entryDx=0;entryDy=0;labelBackgroundColor=none;fontColor=default;" parent="1" source="node42" target="node19" edge="1">
          <mxGeometry width="50" height="50" relative="1" as="geometry">
            <Array as="points">
              <mxPoint x="555" y="4492" />
              <mxPoint x="150" y="4492" />
              <mxPoint x="150" y="4462" />
              <mxPoint x="433" y="4462" />
            </Array>
          </mxGeometry>
        </mxCell>
        <mxCell id="edge66" value="" style="html=1;rounded=1;edgeStyle=orthogonalEdgeStyle;dashed=0;startArrow=diamondThinstartSize=12;endArrow=openThin;endSize=12;strokeColor=#E07A5F;exitX=0.833;exitY=0.000;exitDx=0;exitDy=0;entryX=0.500;entryY=1.000;entryDx=0;entryDy=0;labelBackgroundColor=none;fontColor=default;" parent="1" source="node42" target="node11" edge="1">
          <mxGeometry width="50" height="50" relative="1" as="geometry">
            <Array as="points">
              <mxPoint x="689" y="4542" />
              <mxPoint x="2379" y="4542" />
            </Array>
          </mxGeometry>
        </mxCell>
        <mxCell id="label396" value="1" style="edgeLabel;resizable=0;html=1;align=left;verticalAlign=top;strokeColor=#E07A5F;labelBackgroundColor=none;fontColor=#393C56;" parent="edge66" vertex="1" connectable="0">
          <mxGeometry x="678" y="4595" as="geometry" />
        </mxCell>
        <mxCell id="label400" value="1" style="edgeLabel;resizable=0;html=1;align=left;verticalAlign=top;strokeColor=#E07A5F;labelBackgroundColor=none;fontColor=#393C56;" parent="edge66" vertex="1" connectable="0">
          <mxGeometry x="2368" y="4251" as="geometry" />
        </mxCell>
        <mxCell id="label401" value="notificationServiceImpl" style="edgeLabel;resizable=0;html=1;align=left;verticalAlign=top;strokeColor=#E07A5F;labelBackgroundColor=none;fontColor=#393C56;" parent="edge66" vertex="1" connectable="0">
          <mxGeometry x="2379" y="4251" as="geometry" />
        </mxCell>
        <mxCell id="edge70" value="" style="html=1;rounded=1;edgeStyle=orthogonalEdgeStyle;dashed=1;startArrow=none;endArrow=openThin;endSize=12;strokeColor=#E07A5F;exitX=0.500;exitY=0.000;exitDx=0;exitDy=0;entryX=0.750;entryY=1.000;entryDx=0;entryDy=0;labelBackgroundColor=none;fontColor=default;" parent="1" source="node42" target="node13" edge="1">
          <mxGeometry width="50" height="50" relative="1" as="geometry">
            <Array as="points">
              <mxPoint x="555" y="4472" />
              <mxPoint x="2084" y="4472" />
              <mxPoint x="2084" y="2073" />
              <mxPoint x="2179" y="2073" />
              <mxPoint x="2179" y="2053" />
              <mxPoint x="2235" y="2053" />
            </Array>
          </mxGeometry>
        </mxCell>
        <mxCell id="edge34" value="" style="html=1;rounded=1;edgeStyle=orthogonalEdgeStyle;dashed=1;startArrow=none;endArrow=openThin;endSize=12;strokeColor=#E07A5F;exitX=0.250;exitY=0.000;exitDx=0;exitDy=0;entryX=0.500;entryY=1.000;entryDx=0;entryDy=0;labelBackgroundColor=none;fontColor=default;" parent="1" source="node11" target="node28" edge="1">
          <mxGeometry width="50" height="50" relative="1" as="geometry">
            <Array as="points">
              <mxPoint x="2276" y="3773" />
              <mxPoint x="2318" y="3773" />
            </Array>
          </mxGeometry>
        </mxCell>
        <mxCell id="edge23" value="" style="html=1;rounded=1;edgeStyle=orthogonalEdgeStyle;dashed=1;startArrow=none;endArrow=openThin;endSize=12;strokeColor=#E07A5F;exitX=0.250;exitY=0.000;exitDx=0;exitDy=0;entryX=0.500;entryY=1.000;entryDx=0;entryDy=0;labelBackgroundColor=none;fontColor=default;" parent="1" source="node11" target="node10" edge="1">
          <mxGeometry width="50" height="50" relative="1" as="geometry">
            <Array as="points">
              <mxPoint x="2276" y="3773" />
              <mxPoint x="1905" y="3773" />
            </Array>
          </mxGeometry>
        </mxCell>
        <mxCell id="edge52" value="" style="html=1;rounded=1;edgeStyle=orthogonalEdgeStyle;dashed=0;startArrow=diamondThinstartSize=12;endArrow=openThin;endSize=12;strokeColor=#E07A5F;exitX=0.750;exitY=0.000;exitDx=0;exitDy=0;entryX=0.750;entryY=1.001;entryDx=0;entryDy=0;labelBackgroundColor=none;fontColor=default;" parent="1" source="node11" target="node14" edge="1">
          <mxGeometry width="50" height="50" relative="1" as="geometry">
            <Array as="points">
              <mxPoint x="2482" y="3823" />
              <mxPoint x="2973" y="3823" />
              <mxPoint x="2973" y="3104" />
              <mxPoint x="2642" y="3104" />
            </Array>
          </mxGeometry>
        </mxCell>
        <mxCell id="label312" value="1" style="edgeLabel;resizable=0;html=1;align=left;verticalAlign=top;strokeColor=#E07A5F;labelBackgroundColor=none;fontColor=#393C56;" parent="edge52" vertex="1" connectable="0">
          <mxGeometry x="2471" y="4006" as="geometry" />
        </mxCell>
        <mxCell id="label316" value="*" style="edgeLabel;resizable=0;html=1;align=left;verticalAlign=top;strokeColor=#E07A5F;labelBackgroundColor=none;fontColor=#393C56;" parent="edge52" vertex="1" connectable="0">
          <mxGeometry x="2633" y="2623" as="geometry" />
        </mxCell>
        <mxCell id="label317" value="listeners" style="edgeLabel;resizable=0;html=1;align=left;verticalAlign=top;strokeColor=#E07A5F;labelBackgroundColor=none;fontColor=#393C56;" parent="edge52" vertex="1" connectable="0">
          <mxGeometry x="2642" y="2623" as="geometry" />
        </mxCell>
        <mxCell id="edge59" value="" style="html=1;rounded=1;edgeStyle=orthogonalEdgeStyle;dashed=1;startArrow=none;endArrow=openThin;endSize=12;strokeColor=#E07A5F;exitX=0.250;exitY=0.000;exitDx=0;exitDy=0;entryX=0.750;entryY=1.000;entryDx=0;entryDy=0;labelBackgroundColor=none;fontColor=default;" parent="1" source="node11" target="node13" edge="1">
          <mxGeometry width="50" height="50" relative="1" as="geometry">
            <Array as="points">
              <mxPoint x="2276" y="3773" />
              <mxPoint x="2148" y="3773" />
              <mxPoint x="2148" y="2073" />
              <mxPoint x="2179" y="2073" />
              <mxPoint x="2179" y="2053" />
              <mxPoint x="2235" y="2053" />
            </Array>
          </mxGeometry>
        </mxCell>
        <mxCell id="edge33" value="" style="html=1;rounded=1;edgeStyle=orthogonalEdgeStyle;dashed=1;startArrow=none;endArrow=openThin;endSize=12;strokeColor=#E07A5F;exitX=0.250;exitY=0.000;exitDx=0;exitDy=0;entryX=0.833;entryY=1.000;entryDx=0;entryDy=0;labelBackgroundColor=none;fontColor=default;" parent="1" source="node11" target="node35" edge="1">
          <mxGeometry width="50" height="50" relative="1" as="geometry">
            <Array as="points">
              <mxPoint x="2276" y="3773" />
              <mxPoint x="3024" y="3773" />
              <mxPoint x="3024" y="1262" />
              <mxPoint x="2562" y="1262" />
              <mxPoint x="2562" y="1242" />
              <mxPoint x="1938" y="1242" />
            </Array>
          </mxGeometry>
        </mxCell>
        <mxCell id="edge9" value="" style="html=1;rounded=1;edgeStyle=orthogonalEdgeStyle;dashed=0;startArrow=none;endArrow=block;endSize=12;strokeColor=#E07A5F;exitX=0.500;exitY=0.000;exitDx=0;exitDy=0;entryX=0.167;entryY=1.000;entryDx=0;entryDy=0;labelBackgroundColor=none;fontColor=default;" parent="1" source="node25" target="node35" edge="1">
          <mxGeometry width="50" height="50" relative="1" as="geometry">
            <Array as="points">
              <mxPoint x="7" y="2073" />
              <mxPoint x="112" y="2073" />
              <mxPoint x="112" y="1262" />
              <mxPoint x="772" y="1262" />
              <mxPoint x="772" y="1232" />
              <mxPoint x="1781" y="1232" />
            </Array>
          </mxGeometry>
        </mxCell>
        <mxCell id="edge75" value="" style="html=1;rounded=1;edgeStyle=orthogonalEdgeStyle;dashed=0;startArrow=none;endArrow=block;endSize=12;strokeColor=#E07A5F;exitX=0.250;exitY=0.000;exitDx=0;exitDy=0;entryX=0.750;entryY=1.000;entryDx=0;entryDy=0;labelBackgroundColor=none;fontColor=default;" parent="1" source="node39" target="node7" edge="1">
          <mxGeometry width="50" height="50" relative="1" as="geometry">
            <Array as="points">
              <mxPoint x="-229" y="4512" />
              <mxPoint x="-1491" y="4512" />
              <mxPoint x="-1491" y="3813" />
              <mxPoint x="-1452" y="3813" />
            </Array>
          </mxGeometry>
        </mxCell>
        <mxCell id="edge85" value="" style="html=1;rounded=1;edgeStyle=orthogonalEdgeStyle;dashed=1;startArrow=none;endArrow=openThin;endSize=12;strokeColor=#E07A5F;exitX=0.750;exitY=0.001;exitDx=0;exitDy=0;entryX=0.250;entryY=1.000;entryDx=0;entryDy=0;labelBackgroundColor=none;fontColor=default;" parent="1" source="node39" target="node19" edge="1">
          <mxGeometry width="50" height="50" relative="1" as="geometry">
            <Array as="points">
              <mxPoint x="-45" y="4542" />
              <mxPoint x="150" y="4542" />
              <mxPoint x="150" y="4462" />
              <mxPoint x="433" y="4462" />
            </Array>
          </mxGeometry>
        </mxCell>
        <mxCell id="edge48" value="" style="html=1;rounded=1;edgeStyle=orthogonalEdgeStyle;dashed=0;startArrow=diamondThinstartSize=12;endArrow=openThin;endSize=12;strokeColor=#E07A5F;exitX=0.500;exitY=0.000;exitDx=0;exitDy=0;entryX=0.500;entryY=1.000;entryDx=0;entryDy=0;labelBackgroundColor=none;fontColor=default;" parent="1" source="node35" target="node4" edge="1">
          <mxGeometry width="50" height="50" relative="1" as="geometry">
            <Array as="points">
              <mxPoint x="1860" y="650" />
              <mxPoint x="2528" y="650" />
            </Array>
          </mxGeometry>
        </mxCell>
        <mxCell id="label288" value="1" style="edgeLabel;resizable=0;html=1;align=left;verticalAlign=top;strokeColor=#E07A5F;labelBackgroundColor=none;fontColor=#393C56;" parent="edge48" vertex="1" connectable="0">
          <mxGeometry x="1921" y="630" as="geometry" />
        </mxCell>
        <mxCell id="label292" value="1" style="edgeLabel;resizable=0;html=1;align=left;verticalAlign=top;strokeColor=#E07A5F;labelBackgroundColor=none;fontColor=#393C56;" parent="edge48" vertex="1" connectable="0">
          <mxGeometry x="2456" y="630" as="geometry" />
        </mxCell>
        <mxCell id="label293" value="address" style="edgeLabel;resizable=0;html=1;align=left;verticalAlign=top;strokeColor=#E07A5F;labelBackgroundColor=none;fontColor=#393C56;" parent="edge48" vertex="1" connectable="0">
          <mxGeometry x="2528" y="620" as="geometry" />
        </mxCell>
        <mxCell id="edge5" value="" style="html=1;rounded=1;edgeStyle=orthogonalEdgeStyle;dashed=0;startArrow=none;endArrow=block;endSize=12;strokeColor=#E07A5F;exitX=0.500;exitY=0.000;exitDx=0;exitDy=0;entryX=0.167;entryY=1.000;entryDx=0;entryDy=0;labelBackgroundColor=none;fontColor=default;" parent="1" source="node21" target="node35" edge="1">
          <mxGeometry width="50" height="50" relative="1" as="geometry">
            <Array as="points">
              <mxPoint x="1229" y="1262" />
              <mxPoint x="772" y="1262" />
              <mxPoint x="772" y="1232" />
              <mxPoint x="1781" y="1232" />
            </Array>
          </mxGeometry>
        </mxCell>
        <mxCell id="edge27" value="" style="html=1;rounded=1;edgeStyle=orthogonalEdgeStyle;dashed=0;startArrow=diamondThinstartSize=12;endArrow=openThin;endSize=12;strokeColor=#E07A5F;exitX=0.500;exitY=0.000;exitDx=0;exitDy=0;entryX=0.750;entryY=1.000;entryDx=0;entryDy=0;labelBackgroundColor=none;fontColor=default;" parent="1" source="node36" target="node15" edge="1">
          <mxGeometry width="50" height="50" relative="1" as="geometry">
            <Array as="points">
              <mxPoint x="-1847" y="650" />
              <mxPoint x="-1061" y="650" />
              <mxPoint x="-1061" y="630" />
              <mxPoint x="-1636" y="630" />
            </Array>
          </mxGeometry>
        </mxCell>
        <mxCell id="label162" value="1" style="edgeLabel;resizable=0;html=1;align=left;verticalAlign=top;strokeColor=#E07A5F;labelBackgroundColor=none;fontColor=#393C56;" parent="edge27" vertex="1" connectable="0">
          <mxGeometry x="-1858" y="702" as="geometry" />
        </mxCell>
        <mxCell id="label166" value="*" style="edgeLabel;resizable=0;html=1;align=left;verticalAlign=top;strokeColor=#E07A5F;labelBackgroundColor=none;fontColor=#393C56;" parent="edge27" vertex="1" connectable="0">
          <mxGeometry x="-1645" y="485" as="geometry" />
        </mxCell>
        <mxCell id="label167" value="prices" style="edgeLabel;resizable=0;html=1;align=left;verticalAlign=top;strokeColor=#E07A5F;labelBackgroundColor=none;fontColor=#393C56;" parent="edge27" vertex="1" connectable="0">
          <mxGeometry x="-1636" y="485" as="geometry" />
        </mxCell>
        <mxCell id="edge11" value="" style="html=1;rounded=1;edgeStyle=orthogonalEdgeStyle;dashed=0;startArrow=diamondThinstartSize=12;endArrow=openThin;endSize=12;strokeColor=#E07A5F;exitX=0.167;exitY=0.000;exitDx=0;exitDy=0;entryX=0.250;entryY=1.000;entryDx=0;entryDy=0;labelBackgroundColor=none;fontColor=default;" parent="1" source="node18" target="node7" edge="1">
          <mxGeometry width="50" height="50" relative="1" as="geometry">
            <Array as="points">
              <mxPoint x="-306" y="4827" />
              <mxPoint x="-1541" y="4827" />
              <mxPoint x="-1541" y="3823" />
              <mxPoint x="-1600" y="3823" />
            </Array>
          </mxGeometry>
        </mxCell>
        <mxCell id="label66" value="1" style="edgeLabel;resizable=0;html=1;align=left;verticalAlign=top;strokeColor=#E07A5F;labelBackgroundColor=none;fontColor=#393C56;" parent="edge11" vertex="1" connectable="0">
          <mxGeometry x="-317" y="4828" as="geometry" />
        </mxCell>
        <mxCell id="label70" value="*" style="edgeLabel;resizable=0;html=1;align=left;verticalAlign=top;strokeColor=#E07A5F;labelBackgroundColor=none;fontColor=#393C56;" parent="edge11" vertex="1" connectable="0">
          <mxGeometry x="-1609" y="3532" as="geometry" />
        </mxCell>
        <mxCell id="label71" value="chain" style="edgeLabel;resizable=0;html=1;align=left;verticalAlign=top;strokeColor=#E07A5F;labelBackgroundColor=none;fontColor=#393C56;" parent="edge11" vertex="1" connectable="0">
          <mxGeometry x="-1600" y="3532" as="geometry" />
        </mxCell>
        <mxCell id="edge78" value="" style="html=1;rounded=1;edgeStyle=orthogonalEdgeStyle;dashed=1;startArrow=none;endArrow=openThin;endSize=12;strokeColor=#E07A5F;exitX=0.500;exitY=0.000;exitDx=0;exitDy=0;entryX=0.500;entryY=1.000;entryDx=0;entryDy=0;labelBackgroundColor=none;fontColor=default;" parent="1" source="node18" target="node41" edge="1">
          <mxGeometry width="50" height="50" relative="1" as="geometry">
            <Array as="points">
              <mxPoint x="-137" y="4817" />
              <mxPoint x="-801" y="4817" />
            </Array>
          </mxGeometry>
        </mxCell>
        <mxCell id="edge26" value="" style="html=1;rounded=1;edgeStyle=orthogonalEdgeStyle;dashed=1;startArrow=none;endArrow=openThin;endSize=12;strokeColor=#E07A5F;exitX=0.500;exitY=0.000;exitDx=0;exitDy=0;entryX=0.250;entryY=1.000;entryDx=0;entryDy=0;labelBackgroundColor=none;fontColor=default;" parent="1" source="node18" target="node19" edge="1">
          <mxGeometry width="50" height="50" relative="1" as="geometry">
            <Array as="points">
              <mxPoint x="-137" y="4817" />
              <mxPoint x="345" y="4817" />
              <mxPoint x="345" y="4542" />
              <mxPoint x="150" y="4542" />
              <mxPoint x="150" y="4462" />
              <mxPoint x="433" y="4462" />
            </Array>
          </mxGeometry>
        </mxCell>
        <mxCell id="edge82" value="" style="html=1;rounded=1;edgeStyle=orthogonalEdgeStyle;dashed=1;startArrow=none;endArrow=openThin;endSize=12;strokeColor=#E07A5F;exitX=0.500;exitY=0.000;exitDx=0;exitDy=0;entryX=0.500;entryY=1.000;entryDx=0;entryDy=0;labelBackgroundColor=none;fontColor=default;" parent="1" source="node18" target="node42" edge="1">
          <mxGeometry width="50" height="50" relative="1" as="geometry">
            <Array as="points">
              <mxPoint x="-137" y="4817" />
              <mxPoint x="555" y="4817" />
            </Array>
          </mxGeometry>
        </mxCell>
        <mxCell id="edge80" value="" style="html=1;rounded=1;edgeStyle=orthogonalEdgeStyle;dashed=1;startArrow=none;endArrow=openThin;endSize=12;strokeColor=#E07A5F;exitX=0.500;exitY=0.000;exitDx=0;exitDy=0;entryX=0.500;entryY=1.000;entryDx=0;entryDy=0;labelBackgroundColor=none;fontColor=default;" parent="1" source="node18" target="node39" edge="1">
          <mxGeometry width="50" height="50" relative="1" as="geometry">
            <Array as="points" />
          </mxGeometry>
        </mxCell>
        <mxCell id="edge6" value="" style="html=1;rounded=1;edgeStyle=orthogonalEdgeStyle;dashed=1;startArrow=none;endArrow=block;endSize=12;strokeColor=#E07A5F;exitX=0.833;exitY=0.000;exitDx=0;exitDy=0;entryX=0.500;entryY=1.000;entryDx=0;entryDy=0;labelBackgroundColor=none;fontColor=default;" parent="1" source="node18" target="node3" edge="1">
          <mxGeometry width="50" height="50" relative="1" as="geometry">
            <Array as="points">
              <mxPoint x="32" y="4827" />
              <mxPoint x="201" y="4827" />
            </Array>
          </mxGeometry>
        </mxCell>
        <mxCell id="edge46" value="" style="html=1;rounded=1;edgeStyle=orthogonalEdgeStyle;dashed=1;startArrow=none;endArrow=openThin;endSize=12;strokeColor=#E07A5F;exitX=0.500;exitY=0.000;exitDx=0;exitDy=0;entryX=0.250;entryY=1.001;entryDx=0;entryDy=0;labelBackgroundColor=none;fontColor=default;" parent="1" source="node18" target="node6" edge="1">
          <mxGeometry width="50" height="50" relative="1" as="geometry">
            <Array as="points">
              <mxPoint x="-137" y="4817" />
              <mxPoint x="-1684" y="4817" />
              <mxPoint x="-1684" y="3134" />
              <mxPoint x="-1662" y="3134" />
            </Array>
          </mxGeometry>
        </mxCell>
        <mxCell id="edge39" value="" style="html=1;rounded=1;edgeStyle=orthogonalEdgeStyle;dashed=0;startArrow=diamondThinstartSize=12;endArrow=openThin;endSize=12;strokeColor=#E07A5F;exitX=0.500;exitY=0.000;exitDx=0;exitDy=0;entryX=0.750;entryY=1.000;entryDx=0;entryDy=0;labelBackgroundColor=none;fontColor=default;" parent="1" source="node32" target="node15" edge="1">
          <mxGeometry width="50" height="50" relative="1" as="geometry">
            <Array as="points">
              <mxPoint x="-658" y="640" />
              <mxPoint x="-1061" y="640" />
              <mxPoint x="-1061" y="630" />
              <mxPoint x="-1636" y="630" />
            </Array>
          </mxGeometry>
        </mxCell>
        <mxCell id="label234" value="1" style="edgeLabel;resizable=0;html=1;align=left;verticalAlign=top;strokeColor=#E07A5F;labelBackgroundColor=none;fontColor=#393C56;" parent="edge39" vertex="1" connectable="0">
          <mxGeometry x="-730" y="620" as="geometry" />
        </mxCell>
        <mxCell id="label238" value="1" style="edgeLabel;resizable=0;html=1;align=left;verticalAlign=top;strokeColor=#E07A5F;labelBackgroundColor=none;fontColor=#393C56;" parent="edge39" vertex="1" connectable="0">
          <mxGeometry x="-1647" y="432" as="geometry" />
        </mxCell>
        <mxCell id="label239" value="sort" style="edgeLabel;resizable=0;html=1;align=left;verticalAlign=top;strokeColor=#E07A5F;labelBackgroundColor=none;fontColor=#393C56;" parent="edge39" vertex="1" connectable="0">
          <mxGeometry x="-1636" y="519" as="geometry" />
        </mxCell>
        <mxCell id="edge15" value="" style="html=1;rounded=1;edgeStyle=orthogonalEdgeStyle;dashed=0;startArrow=diamondThinstartSize=12;endArrow=openThin;endSize=12;strokeColor=#E07A5F;exitX=0.500;exitY=0.000;exitDx=0;exitDy=0;entryX=0.500;entryY=1.000;entryDx=0;entryDy=0;labelBackgroundColor=none;fontColor=default;" parent="1" source="node32" target="node20" edge="1">
          <mxGeometry width="50" height="50" relative="1" as="geometry">
            <Array as="points" />
          </mxGeometry>
        </mxCell>
        <mxCell id="label90" value="1" style="edgeLabel;resizable=0;html=1;align=left;verticalAlign=top;strokeColor=#E07A5F;labelBackgroundColor=none;fontColor=#393C56;" parent="edge15" vertex="1" connectable="0">
          <mxGeometry x="-669" y="646" as="geometry" />
        </mxCell>
        <mxCell id="label94" value="1" style="edgeLabel;resizable=0;html=1;align=left;verticalAlign=top;strokeColor=#E07A5F;labelBackgroundColor=none;fontColor=#393C56;" parent="edge15" vertex="1" connectable="0">
          <mxGeometry x="-669" y="418" as="geometry" />
        </mxCell>
        <mxCell id="label95" value="type" style="edgeLabel;resizable=0;html=1;align=left;verticalAlign=top;strokeColor=#E07A5F;labelBackgroundColor=none;fontColor=#393C56;" parent="edge15" vertex="1" connectable="0">
          <mxGeometry x="-658" y="418" as="geometry" />
        </mxCell>
        <mxCell id="edge62" value="" style="html=1;rounded=1;edgeStyle=orthogonalEdgeStyle;dashed=0;startArrow=none;endArrow=block;endSize=12;strokeColor=#E07A5F;exitX=0.167;exitY=0.000;exitDx=0;exitDy=0;entryX=0.750;entryY=1.000;entryDx=0;entryDy=0;labelBackgroundColor=none;fontColor=default;" parent="1" source="node40" target="node7" edge="1">
          <mxGeometry width="50" height="50" relative="1" as="geometry">
            <Array as="points">
              <mxPoint x="-886" y="3823" />
              <mxPoint x="-1491" y="3823" />
              <mxPoint x="-1491" y="3813" />
              <mxPoint x="-1452" y="3813" />
            </Array>
          </mxGeometry>
        </mxCell>
        <mxCell id="edge76" value="" style="html=1;rounded=1;edgeStyle=orthogonalEdgeStyle;dashed=1;startArrow=none;endArrow=openThin;endSize=12;strokeColor=#E07A5F;exitX=0.833;exitY=0.000;exitDx=0;exitDy=0;entryX=0.250;entryY=1.000;entryDx=0;entryDy=0;labelBackgroundColor=none;fontColor=default;" parent="1" source="node40" target="node24" edge="1">
          <mxGeometry width="50" height="50" relative="1" as="geometry">
            <Array as="points">
              <mxPoint x="-612" y="3823" />
              <mxPoint x="-97" y="3823" />
              <mxPoint x="-97" y="3793" />
              <mxPoint x="-388" y="3793" />
              <mxPoint x="-388" y="2063" />
              <mxPoint x="-566" y="2063" />
            </Array>
          </mxGeometry>
        </mxCell>
        <mxCell id="edge68" value="" style="html=1;rounded=1;edgeStyle=orthogonalEdgeStyle;dashed=1;startArrow=none;endArrow=openThin;endSize=12;strokeColor=#E07A5F;exitX=0.833;exitY=0.000;exitDx=0;exitDy=0;entryX=0.750;entryY=1.000;entryDx=0;entryDy=0;labelBackgroundColor=none;fontColor=default;" parent="1" source="node40" target="node26" edge="1">
          <mxGeometry width="50" height="50" relative="1" as="geometry">
            <Array as="points">
              <mxPoint x="-612" y="3823" />
              <mxPoint x="-97" y="3823" />
              <mxPoint x="-97" y="3793" />
              <mxPoint x="262" y="3793" />
              <mxPoint x="262" y="3134" />
              <mxPoint x="518" y="3134" />
              <mxPoint x="518" y="3104" />
              <mxPoint x="581" y="3104" />
            </Array>
          </mxGeometry>
        </mxCell>
        <mxCell id="edge86" value="" style="html=1;rounded=1;edgeStyle=orthogonalEdgeStyle;dashed=1;startArrow=none;endArrow=openThin;endSize=12;strokeColor=#E07A5F;exitX=0.833;exitY=0.000;exitDx=0;exitDy=0;entryX=0.500;entryY=1.000;entryDx=0;entryDy=0;labelBackgroundColor=none;fontColor=default;" parent="1" source="node40" target="node17" edge="1">
          <mxGeometry width="50" height="50" relative="1" as="geometry">
            <Array as="points">
              <mxPoint x="-612" y="3823" />
              <mxPoint x="-97" y="3823" />
              <mxPoint x="-97" y="3813" />
              <mxPoint x="-106" y="3813" />
              <mxPoint x="-106" y="3783" />
              <mxPoint x="-45" y="3783" />
            </Array>
          </mxGeometry>
        </mxCell>
        <mxCell id="edge74" value="" style="html=1;rounded=1;edgeStyle=orthogonalEdgeStyle;dashed=1;startArrow=none;endArrow=openThin;endSize=12;strokeColor=#E07A5F;exitX=0.500;exitY=0.000;exitDx=0;exitDy=0;entryX=0.250;entryY=1.000;entryDx=0;entryDy=0;labelBackgroundColor=none;fontColor=default;" parent="1" source="node40" target="node23" edge="1">
          <mxGeometry width="50" height="50" relative="1" as="geometry">
            <Array as="points">
              <mxPoint x="-749" y="3823" />
              <mxPoint x="-739" y="3823" />
              <mxPoint x="-739" y="2053" />
              <mxPoint x="-1216" y="2053" />
            </Array>
          </mxGeometry>
        </mxCell>
        <mxCell id="label446" value="«create»" style="edgeLabel;resizable=0;html=1;align=left;verticalAlign=top;strokeColor=#E07A5F;labelBackgroundColor=none;fontColor=#393C56;" parent="edge74" vertex="1" connectable="0">
          <mxGeometry x="-789" y="2928" as="geometry" />
        </mxCell>
        <mxCell id="edge63" value="" style="html=1;rounded=1;edgeStyle=orthogonalEdgeStyle;dashed=1;startArrow=none;endArrow=openThin;endSize=12;strokeColor=#E07A5F;exitX=0.833;exitY=0.000;exitDx=0;exitDy=0;entryX=0.750;entryY=1.000;entryDx=0;entryDy=0;labelBackgroundColor=none;fontColor=default;" parent="1" source="node40" target="node25" edge="1">
          <mxGeometry width="50" height="50" relative="1" as="geometry">
            <Array as="points">
              <mxPoint x="-612" y="3823" />
              <mxPoint x="-97" y="3823" />
              <mxPoint x="-97" y="3793" />
              <mxPoint x="174" y="3793" />
              <mxPoint x="174" y="3134" />
              <mxPoint x="201" y="3134" />
              <mxPoint x="201" y="3114" />
              <mxPoint x="60" y="3114" />
            </Array>
          </mxGeometry>
        </mxCell>
        <mxCell id="edge67" value="" style="html=1;rounded=1;edgeStyle=orthogonalEdgeStyle;dashed=1;startArrow=none;endArrow=openThin;endSize=12;strokeColor=#E07A5F;exitX=0.833;exitY=0.000;exitDx=0;exitDy=0;entryX=0.500;entryY=1.000;entryDx=0;entryDy=0;labelBackgroundColor=none;fontColor=default;" parent="1" source="node40" target="node32" edge="1">
          <mxGeometry width="50" height="50" relative="1" as="geometry">
            <Array as="points">
              <mxPoint x="-612" y="3823" />
              <mxPoint x="-97" y="3823" />
              <mxPoint x="-97" y="3793" />
              <mxPoint x="-1338" y="3793" />
              <mxPoint x="-1338" y="1262" />
              <mxPoint x="-1537" y="1262" />
              <mxPoint x="-1537" y="1242" />
              <mxPoint x="-658" y="1242" />
            </Array>
          </mxGeometry>
        </mxCell>
      </root>
    </mxGraphModel>
  </diagram>
</mxfile>
